<?xml version="1.0" encoding="utf-8"?>
<!-- Generator: Adobe Illustrator 14.0.0, SVG Export Plug-In . SVG Version: 6.00 Build 43363)  -->
<!DOCTYPE svg PUBLIC "-//W3C//DTD SVG 1.1//EN" "http://www.w3.org/Graphics/SVG/1.1/DTD/svg11.dtd">
<svg version="1.1" id="Layer_1" xmlns="http://www.w3.org/2000/svg" xmlns:xlink="http://www.w3.org/1999/xlink" x="0px" y="0px"
	 width="175.754px" height="147.065px" viewBox="0 0 175.754 147.065" enable-background="new 0 0 175.754 147.065"
	 xml:space="preserve">
<g>
	<path d="M147.239,119.276c-5.354,1.433-11.073,1.896-16.276,3.67c8.81-7.554,8.308-19.249,14.188-28.147
		c1.874-2.52,3.419-5.159,5.606-7.554c-3.581,7.177-2.023,16.484-6.135,23.446c-1.583,2.766-3.846,5.448-6.346,7.623
		c0.817-0.031,1.533-0.741,2.25-1.213c6.674-6.66,15.396-8.521,22.61-13.932c2.891-2.307,5.543-5.323,6.812-8.59
		C168.58,105.625,157.594,115.982,147.239,119.276L147.239,119.276z"/>
	<path d="M171.281,74.544c-3.268,4.645-7.215,8.968-10.23,13.688c0.338-3.733,0.779-8.333-0.68-11.877
		c-2.525-7.623-4.737-15.365-5.454-23.737l0.101-3.197c1.896,8.546,10.292,14.422,9.765,24.011c0.189,2.325-0.527,4.294-0.967,6.342
		l0.15,0.15l0.377-0.427c1.244-4.7,1.873-9.646,3.809-14.032c2.752-6.315,6.184-12.688,4.789-20.312
		C177.125,54.14,175.855,66.149,171.281,74.544L171.281,74.544z"/>
	<path d="M166.129,26.118c5.504,7.46,6.711,19.35,2.701,27.91c-1.496,3.625-2.551,7.49-3.141,11.506
		c-0.277-0.692-0.34-1.621-0.592-2.395c-2.188-8.377-10.118-14.348-13.373-22.248c-1.031-2.581-1.911-5.252-2.4-8.055
		c3.48,6.441,12.064,9.766,14.404,16.859c0.955,1.797,0.904,4.041,1.494,5.971c0.127,0,0.252-0.094,0.252-0.22
		c-1.031-7.309-0.715-14.962,0.277-22.183c-0.062-3.909-0.441-7.705-2.615-10.729C164.531,23.347,165.16,24.906,166.129,26.118
		L166.129,26.118z"/>
	<path d="M162.244,24.686c1.445,6.535-0.666,12.907,0.666,19.506l-0.051,0.057c-3.556-6.995-11.109-10.294-16.3-15.893
		c-3.017-3.324-4.323-7.373-5.078-11.658c2.979,7.178,11.011,8.761,15.624,14.807c1.545,1.395,2.047,3.324,3.042,4.908l0.162-0.158
		c-2.651-5.662-3.543-12.033-5.391-18.072c-0.931-2.615-2.767-5.186-5.229-6.838C155.735,12.582,160.988,18.905,162.244,24.686
		L162.244,24.686z"/>
	<path d="M146.056,9.692c4.562,4.078,6.625,9.362,7.956,14.836l0.756,1.741c-6.625-4.763-12.633-11.16-16.855-17.917l-5.167-5.222
		C137.284,5.053,142.173,6.204,146.056,9.692L146.056,9.692z"/>
	<path d="M41.537,3.998c-4.575,4.01-7.749,9.081-11.142,13.813c-3.042,3.764-6.932,6.252-10.381,9.488
		c1.859-3.858,1.929-8.471,4.568-12.015C28.34,8.73,35.309,6.424,41.537,3.998L41.537,3.998z"/>
	<path d="M16.52,17.961c2.224-2.765,5.045-4.688,8.22-5.498c-6.165,4.234-5.763,11.82-7.717,18.129
		c-0.622,2.332-1.703,4.48-2.244,6.875l0.157,0.126c1.025-2.708,2.828-5.261,5.078-7.466c4.38-4.041,10.853-6.561,12.996-12.537
		c-0.095,8.308-7.026,14.838-13.656,19.506c-2.733,2.401-5.373,5.135-6.875,8.215c-0.15-2.094,0.309-4.199,0.158-6.441
		C11.919,31.618,11.391,23.34,16.52,17.961L16.52,17.961z"/>
	<path d="M4.051,42.758c-0.188-7.346,2.86-13.348,7.159-18.82c0.125-0.062,0.213-0.189,0.377-0.157
		c-4.732,7.188-0.817,16.245-1.037,24.42l-0.623,8.372c0.094,0.055,0.094,0.307,0.313,0.213c0.277-0.93,0.34-1.93,0.529-2.891
		c1.112-6.75,6.975-11.538,12.097-16.208c1.094-1.218,2.062-2.457,2.621-3.89c-0.416,3.361-1.471,6.75-2.866,9.859
		c-3.984,7.774-11.35,14.153-12.694,23.051C9.273,58.18,3.467,51.801,4.051,42.758L4.051,42.758z"/>
	<path d="M0.469,53.209c0.528-2.3,0.937-4.676,1.936-6.787c-1.898,9.716,4.638,16.717,6.78,25.137
		c0.899,3.148,1.119,6.536,2.401,9.488c0.119,0.063,0.22-0.062,0.295-0.156c-3.192-8.947,1.414-17.256,6.045-24.264
		c1.125-1.896,1.772-4.01,2.331-6.189c0.497,4.048-0.527,8.711-1.118,12.914c-1.125,5.348-2.803,10.419-4.266,15.609
		c-0.962,3.243-0.71,6.901-0.214,10.301l-0.465-0.377C10.8,82.632,4.083,77.749,2.084,70.913
		C0.444,65.464-0.649,59.149,0.469,53.209L0.469,53.209z"/>
	<path d="M0.162,72.182c0.748,10.3,11.821,15.741,16.955,24.263c1.212,1.741,2.269,3.676,3.889,5.134
		c-0.251-1.093-1.275-2.017-1.652-3.142c-1.797-3.575-2.451-7.836-2.017-12.16c0.496-5.26,2.702-10.142,1.859-15.673
		c4.513,9.729,3.143,21.864,5.662,32.402c0.66,2.306,1.993,4.36,2.867,6.566c-9.264-6.316-21.901-12.316-26.011-23.887
		C-0.021,81.702-0.215,76.762,0.162,72.182L0.162,72.182z"/>
	<path d="M5.698,95.829c5.165,11.688,18.104,12.656,26.783,19.777c1.595,1.407,3.268,2.613,5.071,3.456l0.095-0.095
		c-1.992-1.803-4.298-3.853-5.693-6.189c-5.078-7.058-3.293-16.949-7.096-24.546c3.457,4.141,6.599,8.434,8.686,13.128
		c3.104,7.654,4.292,16.308,11.475,22.094c-7.774-2.557-16.88-1.84-23.742-6.63C13.785,112.219,7.099,104.414,5.698,95.829
		L5.698,95.829z"/>
	<path d="M18.977,117.635c8.283,9.419,21.818,6.277,32.854,8.742c1.559,0.213,2.986,0.836,4.638,0.584
		c-1.313-0.836-3.143-0.743-4.575-1.496c-8.654-3.042-9.923-12.404-14.617-18.721c6.002,3.985,11.042,9.357,16.578,14.562
		c3.978,3.486,8.767,5.096,13.813,6.119c-1.213,0.44-2.803,0.321-4.104,0.661c-9.062,2.23-19.136,5.875-28.744,2.614
		C28.566,128.733,22.119,123.788,18.977,117.635L18.977,117.635z"/>
	<path d="M131.415,139.592c-9.339,3.488-19.08-0.157-26.37-5.687c-2.952-1.874-5.554-4.575-9.375-4.337
		c-1.383-0.024-2.716,0.038-3.896,0.377c7.088,3.3,13.661,7.843,19.682,13.656c-1.019,1.157-2.325,2.242-3.569,3.236
		c-5.794-6.246-12.217-12.255-19.406-15.768c-1.408,0.184-2.747,1.024-4.016,1.709c-5.851,3.702-11.638,8.46-15.987,14.285
		l-3.739-3.087c5.97-6.031,12.568-10.732,19.789-14.088c-7.095-2.25-11.726,3.694-17.112,6.719
		c-6.278,4.385-15.302,6.439-22.887,3.417c-4.079-1.546-8.031-3.827-10.985-7.528c5.97,4.111,14.862,4.543,21.649,1.874
		c9.106-3.953,18.57-8.963,29.555-6.568c1.709,0.031,3.38,1.741,4.995,0.283c8.164-2.118,17.401-0.661,24.428,3.072l7.24,2.896
		c6.736,2.495,15.434,1.806,21.203-2.298C139.647,135.452,135.599,138.096,131.415,139.592L131.415,139.592z"/>
	<path d="M141.418,129.946c-10.482,3.96-21.027-0.898-31.068-2.521l-1.936-0.244v-0.063c4.801-1.086,9.464-2.519,13.285-5.97
		c5.63-5.409,10.645-10.979,16.892-15.245c-4.639,5.944-5.129,14.403-12.783,18.23c-1.897,1.238-4.285,1.459-6.246,2.394
		c2.791,0.063,5.342-0.935,8.106-1.212c10.269-1.614,22.02,0.038,29.222-8.71C154.213,122.701,147.514,127.803,141.418,129.946
		L141.418,129.946z"/>
	<path d="M160.459,100.461c-4.133,2.708-8.333,5.222-12.316,8.301v-0.377c6.095-10.131,3.117-24.037,6.875-35.18l1.396-3.732
		c-0.779,6.943,2.236,12.819,2.022,19.789c-0.214,4.204-1.583,7.937-3.795,11.293h0.377c2.979-3.915,5.316-8.087,8.798-11.82
		c5.418-5.223,10.922-10.577,11.637-17.822C177.289,83.009,170.502,93.611,160.459,100.461L160.459,100.461z"/>
	<g>
		<defs>
			<rect id="SVGID_1_" x="25.359" y="0" width="123.461" height="123.453"/>
		</defs>
		<clipPath id="SVGID_2_">
			<use xlink:href="#SVGID_1_"  overflow="visible"/>
		</clipPath>
		<path clip-path="url(#SVGID_2_)" fill="none" stroke="#000000" stroke-width="0.278" stroke-miterlimit="3.864" d="M52.428,66.811
			c-0.279-1.914-0.454-4.975-0.407-6.568c0.09-3.189,0.665-5.568,1.084-6.455c0.834-1.773,1.987-1.15,3.343-0.729
			c1.362,0.412,2.722,0.834,2.722,0.834l1.985-3.344c0,0-3.241-1.566-4.919-2.609c-1.668-1.051-0.202-2.729,0.839-3.764
			c1.045-1.047,8.157-9.412,11.524-12.127c3.372-2.723,3.741-1.049,4.993,2.09c1.257,3.137,1.882,5.02,3.975,10.451l3.138-0.625
			c0,0-3.974-10.762-4.604-12.867c-0.627-2.086,0.948-2.609,1.987-2.818c0.523-0.102,2.21-0.637,3.567-0.922 M57.707,80.76
			c-1.295-2.154-1.048-3.875,0.104-4.391c1.146-0.523,2.715-1.467,4.491-1.984 M112.628,86.497c-1.65,2.092-3.56,3.941-6.275,5.562
			c-2.066,1.229-10.594,0.586-10.594,0.586l-8.433,9.963l-9.024-9.762c0,0-6.896,1.475-10.004-0.594
			c-2.633-1.754-4.51-3.404-6.305-5.516 M113.11,71.87l-1.255,2.516c1.775,0.518,3.442,1.281,4.497,1.984
			c0.708,0.473,0.906,0.818,0.969,1.58c0.044,0.531-0.381,1.869-0.381,1.869 M91.834,27.305c2.461,0.322,3.536,0.838,4.233,0.975
			c1.05,0.209,2.615,0.732,1.991,2.818c-0.634,2.105-4.605,12.867-4.605,12.867l3.14,0.625c2.09-5.432,2.716-7.314,3.969-10.451
			c1.252-3.139,1.619-4.812,4.995-2.09c3.366,2.715,10.476,11.08,11.522,12.127c1.046,1.035,2.511,2.713,0.841,3.764
			c-1.677,1.043-4.918,2.609-4.918,2.609l1.983,3.344c0,0,1.366-0.422,2.721-0.834c1.362-0.422,2.512-1.045,3.345,0.729
			c0.423,0.887,0.997,3.266,1.09,6.455c0.042,1.594-0.258,5.246-0.534,7.162"/>
		<path clip-path="url(#SVGID_2_)" fill="none" stroke="#000000" stroke-width="0.586" stroke-miterlimit="3.864" d="M27.724,61.719
			c0-32.779,26.578-59.357,59.359-59.357c32.797,0,59.373,26.578,59.373,59.357c0,32.793-26.576,59.371-59.373,59.371
			C54.302,121.09,27.724,94.512,27.724,61.719z"/>
		<path clip-path="url(#SVGID_2_)" d="M135.481,61.797c0,26.697-21.645,48.34-48.343,48.34c-26.696,0-48.34-21.643-48.34-48.34
			s21.644-48.342,48.34-48.342C113.836,13.456,135.481,35.1,135.481,61.797 M69.483,99.973c0,0-0.682,1.291-0.897,2.188
			c-0.213,0.896-0.249,1.613-0.249,1.613s0.036,0.285,0.753,0.574c0.715,0.287,0.861,0.107,0.861,0.107s0.643-0.576,1.11-1.723
			c0.465-1.148,0.647-1.861,0.647-1.861s0.499,0.248,1.288,0.535c0.789,0.289,1.29,0.395,1.29,0.395s-0.321,0.932-0.537,1.973
			c-0.227,1.104-0.178,1.975-0.178,1.975s0.321,0.32,0.897,0.465c0.573,0.143,0.86,0,0.86,0s0.499-0.539,0.859-1.793
			c0.359-1.256,0.429-1.936,0.429-1.936s0.535,0.195,1.362,0.393c0.899,0.215,1.293,0.215,1.293,0.215s-0.225,1.152-0.323,1.973
			c-0.14,1.162,0.105,1.982,0.105,1.982s0.27,0.32,0.729,0.396c0.757,0.119,1-0.062,1-0.062s0.578-0.637,0.76-2.885
			c0.183-2.248-0.152-2.854-0.427-3.248c-0.272-0.395-4.045-3.904-7.495-7.65c-3.948-4.281-5.558-7.619-5.558-7.619l9.35-0.939
			c0,0-0.02,1.086-0.544,2.488c-1.093,2.914-1.996,3.373-2.065,3.916c-0.09,0.697,0.213,1.064,0.85,1.244
			c0.639,0.182,1.767-0.252,2.763-0.516c2.671-0.697,4.917-0.941,4.917-0.941l3.734,3.064l4.067-3.215c0,0,1.943,0.455,3.554,0.514
			c1.608,0.062,2.98,0.098,3.217-0.818c0.242-0.941-0.504-2.189-1.093-3.49c-0.589-1.303-1.123-2.49-1.123-2.49
			s1.699,0.424,5.373,0.852c3.673,0.422,5.403,0.484,5.403,0.484s-2.398,4.342-5.889,7.498c-1.086,0.982-2.643,2.734-4.129,4.189
			c-1.487,1.457-2.854,2.762-3.401,3.371c-0.657,0.73-0.515,2.639-0.454,3.307c0.125,1.381,0.396,2.488,0.79,2.912
			c0,0,0.06,0.184,0.85,0.035c0.789-0.154,0.881-0.305,0.881-0.305s0.211-1.035,0.06-2.248c-0.151-1.215-0.305-1.789-0.305-1.789
			s0.305-0.033,1.367-0.273c1.062-0.246,1.336-0.365,1.336-0.365s0.121,1.062,0.425,1.973s0.851,1.791,0.851,1.791
			s0.09,0.244,0.911-0.027c0.819-0.277,0.79-0.457,0.79-0.457s0.149-0.789-0.154-2.066c-0.304-1.273-0.515-1.881-0.515-1.881
			s0.333-0.061,1.334-0.424c1.002-0.365,1.245-0.486,1.245-0.486s0.394,1.156,0.667,1.852c0.397,1,1.063,1.732,1.063,1.732
			s0.092,0.211,0.91-0.156c0.822-0.361,0.729-0.541,0.729-0.541s0.03-0.885-0.425-2.037c-0.454-1.154-0.728-1.793-0.728-1.793
			s0.244-0.09,1.213-0.576c0.973-0.484,1.276-0.697,1.276-0.697s0.465,1.008,0.851,1.732c0.485,0.908,1.274,1.607,1.274,1.607
			s0.181,0.152,0.85-0.244c0.668-0.393,0.698-0.607,0.698-0.607s-0.062-0.939-0.698-2.094c-0.637-1.152-0.91-1.578-0.91-1.578
			s0.304-0.213,1.153-0.758c0.85-0.547,1.123-0.82,1.123-0.82s0.613,0.975,1.092,1.668c0.607,0.883,1.428,1.43,1.428,1.43
			s0.243,0.119,0.882-0.396c0.636-0.516,0.576-0.697,0.576-0.697s-0.122-0.67-0.821-1.73c-0.696-1.062-1.244-1.611-1.244-1.611
			s0.151-0.119,1.064-0.91c0.91-0.789,1.029-0.971,1.029-0.971s0.52,0.758,1.305,1.52c0.943,0.91,1.581,1.215,1.581,1.215
			s0.212,0.059,0.819-0.549c0.606-0.607,0.485-0.729,0.485-0.729s-0.213-0.605-1.062-1.637c-0.852-1.033-1.395-1.457-1.395-1.457
			s0.271-0.215,1.059-1.094c0.79-0.881,0.818-0.973,0.818-0.973s0.505,0.596,1.43,1.307c1.185,0.91,1.758,1.029,1.758,1.029
			s0.153,0.123,0.7-0.545c0.548-0.668,0.395-0.76,0.395-0.76s-0.151-0.637-1.274-1.609c-0.991-0.857-1.55-1.244-1.55-1.244
			s0.334-0.393,0.943-1.273c0.606-0.881,0.699-1.031,0.699-1.031s0.772,0.588,1.668,1.182c1.091,0.73,1.791,0.73,1.791,0.73
			s0.211,0.029,0.605-0.639c0.396-0.666,0.366-0.82,0.366-0.82s-0.607-0.758-1.458-1.365c-0.85-0.609-1.761-1.094-1.761-1.094
			s0.394-0.635,0.789-1.396c0.395-0.758,0.548-1.123,0.548-1.123s0.638,0.484,1.882,1.002c1.458,0.607,1.854,0.516,1.854,0.516
			s0.114,0.061,0.543-0.727c0.366-0.67,0.183-0.82,0.183-0.82s-0.485-0.639-1.641-1.244c-1.152-0.607-1.818-0.85-1.818-0.85
			s0.241-0.578,0.575-1.457c0.334-0.881,0.425-1.154,0.425-1.154s0.796,0.406,1.974,0.76c1.427,0.424,1.883,0.271,1.883,0.271
			s0.211,0,0.454-0.697c0.244-0.697,0.124-0.881,0.124-0.881s-0.276-0.486-1.61-1.033c-1.336-0.547-2.125-0.666-2.125-0.666
			s0.244-0.699,0.425-1.426c0.181-0.73,0.272-1.277,0.272-1.277s0.798,0.26,1.911,0.486c1.488,0.305,2.036,0.061,2.036,0.061
			s0.21-0.031,0.364-0.789c0.151-0.76,0.031-0.85,0.031-0.85s-0.305-0.428-1.791-0.82c-1.489-0.395-2.157-0.395-2.157-0.395
			s0.122-0.699,0.244-1.578c0.121-0.881,0.151-1.273,0.151-1.273s0.575,0.24,2.155,0.303c1.578,0.061,1.852-0.184,1.852-0.184
			s0.243-0.152,0.273-0.912c0.03-0.758-0.122-0.816-0.122-0.816s-0.577-0.367-2.034-0.578c-1.458-0.211-1.943-0.121-1.943-0.121
			s0.031-0.76,0-2.096c-0.028-1.334-0.091-1.82-0.091-1.82s0.183,0.152,1.943-0.059c1.76-0.213,2.005-0.52,2.005-0.52
			s0.212-0.213,0.12-0.969c-0.091-0.76-0.243-0.76-0.243-0.76s-0.639-0.273-2.034-0.242c-1.396,0.029-2.004,0.213-2.004,0.213
			s-0.028-0.58-0.182-1.488c-0.148-0.912-0.241-1.275-0.241-1.275s0.908-0.031,2.245-0.395c1.337-0.365,1.608-0.67,1.608-0.67
			s0.171-0.23,0-0.971c-0.15-0.666-0.394-0.666-0.394-0.666s-0.485-0.305-1.914-0.092c-1.425,0.211-2.032,0.486-2.032,0.486
			s-0.151-0.82-0.395-1.609c-0.243-0.787-0.333-1.092-0.333-1.092s0.504,0.002,2.032-0.607c1.671-0.67,1.638-1.004,1.638-1.004
			s0.062-0.303-0.148-0.85c-0.214-0.547-0.457-0.695-0.457-0.695s-0.879-0.033-1.943,0.24c-1.062,0.273-1.942,0.668-1.942,0.668
			s-0.243-0.637-0.574-1.457c-0.336-0.82-0.456-1.152-0.456-1.152s0.91-0.246,2.001-0.852c1.094-0.607,1.428-1.031,1.428-1.031
			s0.031-0.457-0.304-1.031c-0.333-0.578-0.484-0.547-0.484-0.547s-0.76,0-1.821,0.424c-1.064,0.426-1.882,0.91-1.882,0.91
			s-0.275-0.547-0.729-1.305c-0.458-0.76-0.67-1.092-0.67-1.092s0.91-0.395,2.003-1.215s1.215-1.154,1.215-1.154
			s0.03-0.242-0.394-0.85c-0.425-0.605-0.608-0.547-0.608-0.547s-0.697,0.031-1.73,0.607c-1.03,0.576-1.79,1.184-1.79,1.184
			s-0.304-0.545-0.851-1.273c-0.546-0.73-0.786-1.004-0.786-1.004s1.028-0.637,1.79-1.365c0.758-0.727,1.092-1.307,1.092-1.307
			s-0.031-0.361-0.458-0.818c-0.422-0.455-0.666-0.486-0.666-0.486s-0.667,0.154-1.729,0.879c-1.062,0.73-1.61,1.309-1.61,1.309
			s-0.302-0.365-1-1.092c-0.698-0.73-0.881-0.914-0.881-0.914s1.275-1.152,1.76-1.791c0.486-0.635,0.73-1.213,0.73-1.213
			s0.12-0.271-0.517-0.789c-0.62-0.5-0.759-0.453-0.759-0.453s-0.639,0.24-1.549,1.059c-0.911,0.822-1.457,1.549-1.457,1.549
			s-0.211-0.24-1.092-0.939c-0.882-0.697-1.064-0.82-1.064-0.82s0.578-0.578,1.429-1.852c0.848-1.273,0.728-1.549,0.728-1.549
			s-0.031-0.211-0.548-0.576c-0.516-0.365-0.85-0.365-0.85-0.365s-0.546,0.152-1.396,1.154s-1.337,1.791-1.337,1.791
			s-0.363-0.363-1.184-0.85c-0.819-0.486-1.093-0.639-1.093-0.639s0.607-0.818,1.184-2.033c0.578-1.213,0.517-1.549,0.517-1.549
			s0-0.182-0.637-0.545c-0.637-0.365-0.881-0.244-0.881-0.244s-0.545,0.273-1.243,1.338c-0.698,1.061-1.093,1.881-1.093,1.881
			s-0.396-0.213-1.338-0.639c-0.94-0.424-1.153-0.484-1.153-0.484s0.608-1.184,1.003-2.277s0.304-1.518,0.304-1.518
			s-0.123-0.273-0.76-0.516c-0.638-0.244-0.882-0.123-0.882-0.123s-0.515,0.426-1.06,1.49c-0.549,1.061-0.852,2.031-0.852,2.031
			s-0.333-0.15-1.366-0.484c-1.032-0.334-1.214-0.363-1.214-0.363s0.456-1.246,0.698-2.4c0.244-1.152,0.091-1.518,0.091-1.518
			s-0.061-0.184-0.668-0.363c-0.606-0.182-0.97-0.061-0.97-0.061s-0.492,0.291-0.914,1.547c-0.423,1.275-0.604,2.154-0.604,2.154
			l-1.365-0.27c-1.062-0.215-1.366-0.244-1.366-0.244s0.332-0.881,0.455-2.277c0.12-1.396-0.062-1.73-0.062-1.73
			s-0.274-0.213-0.879-0.303c-0.609-0.092-0.853,0.09-0.853,0.09s-0.455,0.547-0.696,1.701c-0.245,1.152-0.335,2.244-0.335,2.244
			l-2.367-0.27c0,0-0.031-1.822-0.213-2.705c-0.183-0.879-0.76-1.365-1.243-1.486c-0.486-0.121-0.913-0.182-1.184,0.031
			c-0.274,0.213-0.578,1.486-0.823,1.791c-0.24,0.303-1.362,1.121-1.942,2.49l-0.726,0.119c0,0-0.122-1.275-0.428-2.396
			c-0.304-1.123-0.726-1.609-0.726-1.609s-0.214-0.121-0.882,0c-0.667,0.121-0.76,0.334-0.76,0.334s-0.214,0.668-0.059,1.73
			c0.151,1.062,0.454,2.246,0.454,2.246s-0.609,0.061-1.396,0.211c-0.789,0.152-1.367,0.336-1.367,0.336s-0.182-1.156-0.606-2.188
			S76.2,17.04,76.2,17.04s-0.304-0.09-0.91,0.092c-0.604,0.18-0.758,0.334-0.758,0.334s-0.121,0.789,0.183,1.85
			c0.303,1.064,0.665,2.098,0.665,2.098s-0.515,0.119-1.364,0.393s-1.246,0.484-1.246,0.484s-0.361-0.969-0.879-2.031
			c-0.517-1.062-1.093-1.549-1.093-1.549s-0.244-0.121-0.879,0.152c-0.641,0.273-0.699,0.516-0.699,0.516s0.029,0.971,0.362,1.762
			c0.337,0.789,0.972,2.004,0.972,2.004s-0.516,0.211-1.334,0.576c-0.82,0.363-1.185,0.607-1.185,0.607s-0.364-0.912-1.031-1.854
			c-0.668-0.941-1.336-1.428-1.336-1.428s-0.456,0-0.91,0.275c-0.456,0.273-0.578,0.576-0.578,0.576s0.029,0.697,0.637,1.791
			c0.606,1.09,1.093,1.73,1.093,1.73s-0.454,0.275-1.214,0.758c-0.758,0.486-1.093,0.76-1.093,0.76s-0.578-0.881-1.276-1.699
			c-0.696-0.82-1.454-1.246-1.454-1.246s-0.364-0.029-0.881,0.396c-0.516,0.424-0.516,0.637-0.516,0.637s0.091,0.67,0.818,1.67
			c0.729,1.002,1.336,1.639,1.336,1.639s-0.394,0.275-1.063,0.82c-0.665,0.547-1.091,0.939-1.091,0.939s-0.67-0.787-1.609-1.607
			c-0.941-0.82-1.457-0.941-1.457-0.941s-0.303-0.031-0.789,0.455c-0.487,0.486-0.425,0.729-0.425,0.729s0.059,0.486,1.062,1.578
			c1,1.094,1.459,1.426,1.459,1.426s-0.459,0.426-1.065,1.062c-0.607,0.641-0.818,0.943-0.818,0.943s-0.637-0.607-1.671-1.336
			c-1.031-0.73-1.699-0.881-1.699-0.881s-0.274,0.029-0.699,0.547c-0.423,0.516-0.394,0.787-0.394,0.787s0.122,0.486,1.153,1.4
			c1.032,0.908,1.731,1.301,1.731,1.301s-0.304,0.305-0.882,1.096c-0.577,0.791-0.757,1.121-0.757,1.121s-0.668-0.514-1.823-1.121
			c-1.151-0.607-1.761-0.639-1.761-0.639s-0.274,0.061-0.606,0.607c-0.335,0.547-0.335,0.85-0.335,0.85s0.396,0.67,1.551,1.367
			c1.151,0.697,1.607,0.941,1.607,0.941s-0.211,0.332-0.699,1.184c-0.485,0.852-0.668,1.213-0.668,1.213S49.245,41.719,48,41.293
			c-1.246-0.424-1.821-0.424-1.821-0.424s-0.274,0.061-0.549,0.578c-0.308,0.588-0.271,0.939-0.271,0.939s0.397,0.609,1.791,1.244
			c1.396,0.639,1.671,0.697,1.671,0.697s-0.121,0.213-0.518,1.156c-0.396,0.941-0.544,1.426-0.544,1.426s-0.548-0.334-2.065-0.697
			c-1.518-0.367-1.821-0.182-1.821-0.182s-0.214,0.029-0.427,0.637c-0.212,0.607-0.15,0.971-0.15,0.971s0.242,0.486,1.76,0.971
			c1.518,0.486,1.913,0.549,1.913,0.549s-0.121,0.305-0.364,1.215c-0.243,0.908-0.366,1.457-0.366,1.457s-0.694-0.246-2.032-0.428
			c-1.336-0.182-1.974,0.062-1.974,0.062s-0.272,0.213-0.394,0.91c-0.093,0.514,0.09,0.727,0.09,0.727s0.214,0.428,1.853,0.76
			s1.976,0.332,1.976,0.332s-0.155,0.58-0.276,1.459c-0.121,0.881-0.152,1.244-0.152,1.244s-0.573-0.15-2.032-0.15
			c-1.457,0-1.975,0.213-1.975,0.213s-0.24-0.029-0.271,0.971c0,0-0.031,0.637,0.09,0.758c0.121,0.123,0.335,0.395,2.003,0.52
			c1.67,0.119,2.003,0.059,2.003,0.059s-0.09,0.76-0.09,1.943v1.973c0,0-1.003-0.062-2.217,0.15s-1.789,0.549-1.789,0.549
			s-0.183,0.242-0.121,0.816c0.061,0.58,0.273,0.912,0.273,0.912s0.454,0.305,2.032,0.184c1.578-0.123,1.975-0.273,1.975-0.273
			s0.031,0.334,0.15,1.365c0.121,1.033,0.185,1.426,0.185,1.426s-0.853,0.062-2.006,0.396c-1.153,0.332-1.85,0.818-1.85,0.818
			s-0.153,0.365,0,0.943c0.15,0.576,0.361,0.758,0.361,0.758s0.457,0.213,1.944-0.092c1.486-0.303,1.975-0.516,1.975-0.516
			s0.119,0.455,0.332,1.307c0.212,0.848,0.364,1.396,0.364,1.396s-0.789,0.211-1.974,0.695c-1.183,0.486-1.729,1.033-1.729,1.033
			s-0.031,0.303,0.15,0.848c0.183,0.549,0.425,0.73,0.425,0.73s0.515,0.182,2.034-0.332c1.518-0.518,1.821-0.67,1.821-0.67
			s0.153,0.486,0.456,1.244c0.304,0.76,0.516,1.305,0.516,1.305s-0.88,0.336-1.911,0.912c-1.034,0.576-1.549,1.215-1.549,1.215
			s-0.031,0.334,0.211,0.85c0.243,0.516,0.547,0.697,0.547,0.697s0.396,0.215,1.913-0.547c1.517-0.758,1.82-1,1.82-1
			s0.093,0.305,0.578,1.215s0.729,1.273,0.729,1.273s-0.972,0.576-1.729,1.094c-0.76,0.516-1.427,1.457-1.427,1.457
			s-0.062,0.242,0.303,0.789c0.364,0.545,0.668,0.668,0.668,0.668s0.639-0.061,1.853-0.85s1.637-1.092,1.637-1.092
			s0.306,0.514,0.76,1.182c0.456,0.668,0.789,1.094,0.789,1.094s-0.546,0.273-1.486,1.184c-0.941,0.912-1.335,1.641-1.335,1.641
			s-0.061,0.242,0.333,0.729c0.396,0.484,0.76,0.666,0.76,0.666s0.665-0.121,1.85-1.123c1.185-1,1.367-1.215,1.367-1.215
			s0.182,0.152,0.818,0.883c0.641,0.727,1.063,1.154,1.063,1.154s-1.063,1.029-1.607,1.729c-0.549,0.699-0.821,1.395-0.821,1.395
			s0.029,0.365,0.454,0.762c0.426,0.393,0.789,0.486,0.789,0.486s0.729-0.273,1.671-1.277c0.939-1.002,1.214-1.457,1.214-1.457
			s0.243,0.242,1.032,0.91c0.791,0.668,1.095,0.914,1.095,0.914s-0.702,0.756-1.217,1.607c-0.515,0.848-0.848,1.85-0.848,1.85
			s0,0.242,0.547,0.639c0.544,0.396,0.787,0.396,0.787,0.396s0.596-0.193,1.551-1.49c0.848-1.154,1.092-1.486,1.092-1.486
			s0.271,0.182,1.061,0.699c0.789,0.514,1.214,0.787,1.214,0.787s-0.463,0.711-0.91,1.58c-0.515,1.002-0.697,2.096-0.697,2.096
			s0,0.182,0.576,0.516c0.577,0.334,0.91,0.334,0.91,0.334s0.606-0.365,1.366-1.762c0.761-1.396,0.851-1.578,0.851-1.578
			s0.242,0.209,1.153,0.635C69.096,99.762,69.483,99.973,69.483,99.973"/>
		<path clip-path="url(#SVGID_2_)" d="M67.644,41.506c0,0,4.66,2.494,9.77,1.641c4.373-0.73,5.594-3.523,5.594-3.523
			s-1.226-0.439-0.918-1.516c0.243-0.85,1.338-0.672,1.338-0.672s0.059-1.27-1.034-2.061c-1.093-0.789-2.124-0.668-1.82-1.76
			c0.361-1.307,3.338-0.607,6.313-0.607c2.977,0,6.385-0.633,6.799,0.607c0.365,1.092-1.174,1.184-1.941,1.76
			c-0.728,0.545-1.033,2.002-1.033,2.002s1.214,0.123,1.337,0.609c0.315,1.258-0.91,1.578-0.91,1.578s1.193,2.83,4.978,3.521
			c6.312,1.152,10.382-1.639,10.382-1.639s-3.825-0.365-4.613-3.523c-0.789-3.156,2.001-6.674,4.795-6.615
			c2.914,0.059,6.799,1.939,8.805,6.979c0.893,2.25,1.862,5.355,2.244,9.473c0.385,4.119,0.184,9.26-0.911,14.631
			c-2.295,11.297-7.283,18.336-7.283,18.336s-2.489-0.182-4.616-0.484c-2.123-0.305-4.371-0.668-4.371-0.668
			s6.195-8.137,8.076-18.822c1.291-7.332,0.182-11.414,0.182-11.414s-8.015,2.76-21.796,2.76s-21.614-2.76-21.614-2.76
			s-1.133,5.533,0.062,11.295c2.367,11.414,8.136,18.941,8.136,18.941s-2.793,0.244-4.677,0.424
			c-1.881,0.184-4.491,0.547-4.491,0.547s-5.811-9.203-7.166-18.516c-0.971-6.68-1.092-10.08-0.789-14.209
			c0.304-4.129,1.095-7.285,2.552-10.383c1.457-3.096,4.796-6.01,8.256-6.129c3.462-0.123,6.048,4.244,4.979,6.799
			c-1.396,3.34-4.736,3.34-4.736,3.34"/>
		<path clip-path="url(#SVGID_2_)" fill="#EA158A" d="M79.967,118.02l0.925,0.092l0.703-6.643l-0.58-0.072
			c-0.301,0.258-0.475,0.359-0.884,0.549l-0.074,0.664l0.473,0.051L79.967,118.02z"/>
		<path clip-path="url(#SVGID_2_)" fill="#EA158A" d="M84.997,114.887c0.449-0.297,0.508-0.453,0.562-1.57
			c0.036-0.625-0.02-0.932-0.204-1.219c-0.187-0.283-0.513-0.455-0.899-0.471c-0.389-0.02-0.726,0.109-0.944,0.361
			c-0.225,0.285-0.314,0.576-0.348,1.211c-0.057,1.115-0.014,1.264,0.413,1.621c-0.535,0.178-0.58,0.322-0.665,1.914
			c-0.036,0.641,0.026,0.992,0.229,1.293c0.199,0.291,0.551,0.465,0.953,0.486c0.863,0.047,1.304-0.508,1.369-1.676
			C85.539,115.303,85.498,115.127,84.997,114.887 M84.054,112.95c0.021-0.385,0.117-0.535,0.36-0.518
			c0.229,0.002,0.304,0.166,0.292,0.555l-0.047,0.889c-0.022,0.387-0.119,0.527-0.354,0.518c-0.235-0.014-0.321-0.164-0.301-0.557
			L84.054,112.95z M83.864,115.917c0.029-0.449,0.126-0.586,0.396-0.572c0.261,0.023,0.351,0.176,0.33,0.609l-0.054,1.125
			c-0.031,0.43-0.137,0.588-0.396,0.576c-0.276-0.016-0.357-0.162-0.333-0.615L83.864,115.917z"/>
		<path clip-path="url(#SVGID_2_)" fill="#EA158A" d="M89.084,114.875c0.425-0.342,0.466-0.496,0.428-1.605
			c-0.017-0.633-0.1-0.938-0.311-1.203s-0.546-0.406-0.936-0.393c-0.396,0.012-0.722,0.172-0.912,0.453
			c-0.205,0.287-0.257,0.594-0.236,1.221c0.038,1.121,0.092,1.262,0.546,1.584c-0.517,0.23-0.551,0.365-0.496,1.971
			c0.026,0.635,0.116,0.979,0.348,1.26c0.223,0.273,0.587,0.418,0.985,0.406c0.865-0.033,1.256-0.621,1.211-1.793
			C89.663,115.235,89.606,115.067,89.084,114.875 M87.979,113.026c-0.019-0.389,0.069-0.537,0.31-0.553
			c0.236-0.008,0.328,0.141,0.342,0.533l0.029,0.887c0.014,0.387-0.072,0.541-0.297,0.551c-0.24,0.012-0.344-0.143-0.353-0.527
			L87.979,113.026z M88.048,116.006c-0.016-0.457,0.074-0.596,0.344-0.605c0.264-0.01,0.362,0.146,0.385,0.57l0.036,1.131
			c0.016,0.426-0.079,0.586-0.34,0.594c-0.268,0.02-0.366-0.127-0.382-0.576L88.048,116.006z"/>
		<path clip-path="url(#SVGID_2_)" fill="#EA158A" d="M91.609,116.37c0,0.176,0.01,0.256,0.029,0.428
			c0.131,1.006,0.643,1.502,1.427,1.41c0.408-0.053,0.769-0.27,0.955-0.574c0.193-0.311,0.217-0.582,0.137-1.264l-0.185-1.541
			c-0.119-0.969-0.521-1.494-1.094-1.418c-0.269,0.027-0.456,0.188-0.687,0.561l-0.121-1.613l1.375-0.162l-0.08-0.879l-2.161,0.266
			l0.314,3.426l0.789-0.094c0.048-0.365,0.172-0.572,0.364-0.594c0.188-0.023,0.309,0.119,0.347,0.439l0.249,1.998
			c0.041,0.344-0.052,0.549-0.268,0.572c-0.281,0.027-0.422-0.211-0.497-0.814l-0.028-0.252L91.609,116.37z"/>
		<path clip-path="url(#SVGID_2_)" fill="#EA158A" d="M75.883,9.159c0-0.365,0.297-0.664,0.656-0.664
			c0.366,0,0.665,0.299,0.665,0.664c0,0.373-0.299,0.656-0.665,0.656C76.18,9.815,75.883,9.532,75.883,9.159"/>
		<path clip-path="url(#SVGID_2_)" fill="#EA158A" d="M99.223,113.952c0.025-0.371,0.347-0.643,0.715-0.613
			c0.364,0.033,0.627,0.357,0.603,0.729c-0.036,0.361-0.356,0.627-0.722,0.592C99.455,114.627,99.187,114.315,99.223,113.952"/>
		<path clip-path="url(#SVGID_2_)" fill="#EA158A" d="M73.831,114.081c0-0.367,0.299-0.656,0.661-0.656
			c0.364,0,0.663,0.289,0.663,0.656c0,0.363-0.299,0.658-0.663,0.658C74.129,114.739,73.831,114.444,73.831,114.081"/>
		<path clip-path="url(#SVGID_2_)" fill="#EA158A" d="M69.832,111.022c0.069-0.133,0.09-0.191,0.139-0.307
			c0.209-0.518,0.245-0.789,0.162-1.131c-0.107-0.408-0.359-0.668-0.805-0.848c-0.762-0.312-1.374-0.041-1.69,0.748
			c-0.205,0.492-0.234,1.178-0.079,1.893l0.176,0.768c0.214,1.033,0.216,1.129,0.067,1.492c-0.138,0.357-0.342,0.498-0.562,0.404
			c-0.184-0.068-0.265-0.254-0.197-0.506c0.033-0.129,0.069-0.236,0.188-0.539l-0.834-0.246c-0.193,0.486-0.202,0.51-0.254,0.754
			c-0.102,0.578,0.18,1.066,0.732,1.293c0.733,0.289,1.412-0.008,1.721-0.781c0.213-0.521,0.216-0.996,0.013-1.959l-0.166-0.77
			c-0.185-0.697-0.187-0.969-0.031-1.357c0.15-0.373,0.357-0.533,0.6-0.438c0.328,0.133,0.345,0.371,0.095,0.99l-0.097,0.24
			L69.832,111.022z"/>
		<polygon clip-path="url(#SVGID_2_)" fill="#EA158A" points="61.785,112.465 64.667,106.811 62.687,105.815 62.313,106.545 
			63.5,107.153 62.552,109.008 61.778,108.6 61.398,109.35 62.175,109.743 61.369,111.327 60.253,110.758 59.874,111.495 		"/>
		<path clip-path="url(#SVGID_2_)" fill="#EA158A" d="M57.859,104.479l-0.654-0.459l0.684-1.266l-0.708-0.492l-2.958,5.674
			l0.931,0.656l4.352-4.701l-0.703-0.494L57.859,104.479z M56.805,104.756l0.499,0.346l-1.936,2.234L56.805,104.756z"/>
		<polygon clip-path="url(#SVGID_2_)" fill="#EA158A" points="54.207,99.844 52.592,98.444 52.05,99.063 52.995,99.891 
			49.375,104.057 50.042,104.637 		"/>
		<path clip-path="url(#SVGID_2_)" fill="#EA158A" d="M38.752,88.182c-0.649,0.379-0.777,0.488-0.928,0.768
			c-0.171,0.34-0.142,0.781,0.081,1.18c0.227,0.379,0.596,0.629,0.973,0.65c0.324,0.016,0.477-0.051,1.129-0.42l2.7-1.561
			c0.656-0.375,0.78-0.477,0.928-0.771c0.181-0.338,0.153-0.785-0.069-1.166c-0.225-0.393-0.598-0.639-0.984-0.652
			c-0.321-0.018-0.468,0.039-1.124,0.422L38.752,88.182z M42.219,87.204c0.312-0.178,0.499-0.154,0.63,0.066
			c0.133,0.232,0.054,0.402-0.261,0.584l-3.336,1.924c-0.312,0.182-0.504,0.156-0.632-0.064c-0.131-0.23-0.055-0.402,0.258-0.588
			L42.219,87.204z"/>
		<polygon clip-path="url(#SVGID_2_)" fill="#EA158A" points="35.327,84.862 41.123,82.284 40.765,81.475 38.106,82.663 
			37.748,81.854 36.993,82.196 37.348,82.993 35.722,83.719 35.214,82.573 34.457,82.905 		"/>
		<polygon clip-path="url(#SVGID_2_)" fill="#EA158A" points="36.986,66.739 36.927,65.86 31.417,66.241 31.364,65.379 
			30.534,65.434 30.714,68 31.542,67.948 31.483,67.124 		"/>
		<polygon clip-path="url(#SVGID_2_)" fill="#EA158A" points="33.926,59.567 36.835,59.713 36.88,58.831 30.545,58.499 30.5,59.387 
			33.101,59.52 33.063,60.245 30.462,60.102 30.411,60.995 36.75,61.323 36.794,60.438 33.888,60.288 		"/>
		<polygon clip-path="url(#SVGID_2_)" fill="#EA158A" points="30.981,53.907 37.249,54.899 37.595,52.713 36.775,52.583 
			36.57,53.895 34.511,53.567 34.646,52.706 33.828,52.583 33.693,53.436 31.934,53.165 32.134,51.93 31.316,51.792 		"/>
		<path clip-path="url(#SVGID_2_)" fill="#EA158A" d="M39.938,36.278l-0.558,1.139l0.672,0.332l0.171-0.35l0.825,0.404
			c0.314,0.152,0.366,0.184,0.468,0.256c0.144,0.115,0.19,0.299,0.114,0.463c-0.069,0.133-0.229,0.203-0.4,0.164
			c-0.123-0.031-0.133-0.037-0.508-0.221l-3.017-1.467c-0.499-0.24-0.592-0.371-0.468-0.627c0.14-0.287,0.346-0.279,0.989,0.037
			c0.117,0.055,0.204,0.096,0.375,0.201l0.39-0.799c-0.216-0.119-0.324-0.176-0.445-0.24c-0.994-0.477-1.675-0.336-2.055,0.428
			c-0.362,0.752-0.079,1.35,0.82,1.793l3.023,1.471c0.511,0.25,0.76,0.328,1.063,0.316c0.378-0.016,0.737-0.232,0.895-0.559
			c0.14-0.275,0.099-0.592-0.121-0.977l0.456,0.072l0.205-0.426L39.938,36.278z"/>
		<polygon clip-path="url(#SVGID_2_)" fill="#EA158A" points="39.85,30.307 44.915,34.127 46.25,32.352 45.591,31.848 44.785,32.92 
			43.125,31.67 43.649,30.967 42.988,30.473 42.46,31.168 41.037,30.092 41.796,29.096 41.138,28.602 		"/>
		<path clip-path="url(#SVGID_2_)" fill="#EA158A" d="M46.667,24.352c-0.562-0.508-0.697-0.594-1.019-0.654
			c-0.378-0.053-0.787,0.109-1.088,0.443c-0.302,0.338-0.421,0.768-0.329,1.135c0.091,0.307,0.196,0.438,0.754,0.941l2.317,2.084
			c0.56,0.502,0.697,0.588,1.019,0.652c0.375,0.055,0.793-0.105,1.093-0.436c0.301-0.336,0.418-0.76,0.319-1.133
			c-0.091-0.314-0.188-0.439-0.749-0.947L46.667,24.352z M48.665,27.34c0.27,0.242,0.306,0.426,0.133,0.619
			c-0.18,0.201-0.362,0.18-0.625-0.066l-2.866-2.582c-0.268-0.238-0.302-0.426-0.133-0.617c0.178-0.195,0.359-0.176,0.632,0.068
			L48.665,27.34z"/>
		<path clip-path="url(#SVGID_2_)" fill="#EA158A" d="M48.734,20.036l4.249,4.717l0.656-0.594l-1.803-2
			c0.095-0.092,0.112-0.113,0.214-0.242l2.203,1.689l0.708-0.637l-2.491-1.836c-0.038-0.602-0.161-0.861-0.694-1.451
			c-0.359-0.4-0.652-0.605-0.984-0.721c-0.477-0.158-0.825-0.033-1.414,0.502L48.734,20.036z M51.241,21.495l-1.297-1.434
			l0.097-0.084c0.351-0.316,0.568-0.287,0.974,0.158c0.394,0.443,0.467,0.539,0.537,0.684c0.078,0.193,0.021,0.377-0.221,0.592
			L51.241,21.495z"/>
		<path clip-path="url(#SVGID_2_)" fill="#EA158A" d="M58.547,16.44l-1.088,0.66l0.386,0.639l0.335-0.197l0.471,0.783
			c0.18,0.297,0.211,0.35,0.245,0.467c0.064,0.176,0.004,0.363-0.151,0.449c-0.123,0.08-0.301,0.055-0.42-0.076
			c-0.09-0.098-0.097-0.1-0.311-0.457l-1.733-2.881c-0.28-0.475-0.292-0.637-0.042-0.783c0.263-0.158,0.436-0.043,0.805,0.572
			c0.074,0.117,0.121,0.197,0.206,0.375l0.754-0.461c-0.11-0.221-0.174-0.318-0.241-0.439c-0.57-0.939-1.218-1.195-1.951-0.754
			c-0.708,0.422-0.805,1.08-0.283,1.947l1.729,2.873c0.29,0.49,0.459,0.691,0.718,0.846c0.323,0.197,0.744,0.207,1.059,0.023
			c0.266-0.164,0.404-0.445,0.43-0.879l0.344,0.301l0.406-0.242L58.547,16.44z"/>
		<polygon clip-path="url(#SVGID_2_)" fill="#EA158A" points="61.598,11.108 60.804,11.5 63.586,17.196 64.379,16.809 		"/>
		<path clip-path="url(#SVGID_2_)" fill="#EA158A" d="M68.314,13.502l0.744-0.273l0.643,1.291l0.816-0.299l-2.949-5.684L66.493,8.93
			l1.354,6.26l0.81-0.293L68.314,13.502z M68.689,12.485l-0.573,0.211l-0.719-2.867L68.689,12.485z"/>
		<polygon clip-path="url(#SVGID_2_)" fill="#EA158A" points="84.131,5.1 83.25,5.167 83.693,11.499 84.579,11.438 		"/>
		<polygon clip-path="url(#SVGID_2_)" fill="#EA158A" points="91.71,5.25 90.82,5.206 90.626,8.94 89.658,5.139 88.894,5.1 
			88.559,11.442 89.447,11.481 89.622,8.161 90.49,11.543 91.38,11.586 		"/>
		<path clip-path="url(#SVGID_2_)" fill="#EA158A" d="M95.445,10.26c-0.028,0.148-0.043,0.203-0.059,0.336
			c-0.086,0.543-0.063,0.818,0.104,1.131c0.184,0.369,0.496,0.57,0.972,0.65c0.812,0.125,1.35-0.279,1.478-1.104
			c0.087-0.535-0.044-1.213-0.35-1.869l-0.343-0.713c-0.442-0.965-0.466-1.049-0.409-1.438c0.064-0.377,0.225-0.562,0.461-0.525
			c0.204,0.027,0.316,0.191,0.309,0.455c-0.003,0.133-0.013,0.244-0.064,0.572l0.871,0.039c0.08-0.508,0.084-0.541,0.079-0.783
			c-0.036-0.594-0.415-0.998-1.008-1.092c-0.781-0.125-1.364,0.32-1.499,1.148C95.895,7.624,96,8.079,96.417,8.973l0.324,0.711
			c0.342,0.643,0.409,0.896,0.342,1.316c-0.059,0.4-0.228,0.6-0.489,0.557c-0.347-0.055-0.418-0.277-0.312-0.943l0.033-0.254
			L95.445,10.26z"/>
		<polygon clip-path="url(#SVGID_2_)" fill="#EA158A" points="102.222,13.688 103.057,13.987 104.941,8.797 105.753,9.1 
			106.043,8.319 103.619,7.44 103.333,8.219 104.115,8.495 		"/>
		<polygon clip-path="url(#SVGID_2_)" fill="#EA158A" points="110.844,10.288 110.042,9.897 107.258,15.598 108.056,15.983 		"/>
		<polygon clip-path="url(#SVGID_2_)" fill="#EA158A" points="112.014,17.995 112.768,18.452 115.609,13.721 116.355,14.172 
			116.776,13.459 114.566,12.133 114.141,12.842 114.858,13.264 		"/>
		<path clip-path="url(#SVGID_2_)" fill="#EA158A" d="M121.051,16.395l-0.703-0.537l-2.851,3.783
			c-0.451,0.598-0.535,0.744-0.558,1.072c-0.022,0.375,0.18,0.775,0.532,1.041c0.365,0.275,0.8,0.357,1.154,0.23
			c0.299-0.115,0.422-0.23,0.876-0.834l2.856-3.781l-0.713-0.533l-3.067,4.076c-0.219,0.287-0.393,0.35-0.602,0.184
			c-0.211-0.158-0.211-0.342,0.009-0.635L121.051,16.395z"/>
		<polygon clip-path="url(#SVGID_2_)" fill="#EA158A" points="121.87,25.356 122.527,25.95 126.22,21.844 126.865,22.43 
			127.418,21.809 125.503,20.086 124.946,20.7 125.562,21.26 		"/>
		<polygon clip-path="url(#SVGID_2_)" fill="#EA158A" points="130.78,25.549 125.709,29.368 127.046,31.141 127.706,30.639 
			126.907,29.577 128.568,28.321 129.102,29.022 129.761,28.52 129.229,27.829 130.653,26.758 131.405,27.764 132.064,27.26 		"/>
		<path clip-path="url(#SVGID_2_)" fill="#EA158A" d="M139.041,43.516c0.71-0.248,0.852-0.338,1.053-0.59
			c0.222-0.307,0.272-0.742,0.124-1.168c-0.155-0.418-0.483-0.725-0.847-0.82c-0.319-0.066-0.479-0.035-1.188,0.219l-2.93,1.07
			c-0.703,0.258-0.85,0.344-1.05,0.596c-0.234,0.312-0.281,0.752-0.133,1.172c0.152,0.428,0.483,0.732,0.855,0.811
			c0.317,0.068,0.469,0.047,1.188-0.213L139.041,43.516z M135.457,43.889c-0.34,0.115-0.52,0.066-0.606-0.18
			c-0.089-0.252,0.018-0.402,0.354-0.52l3.622-1.32c0.34-0.125,0.524-0.07,0.611,0.168c0.086,0.254-0.018,0.406-0.353,0.533
			L135.457,43.889z"/>
		<polygon clip-path="url(#SVGID_2_)" fill="#EA158A" points="141.995,47.495 135.809,48.922 136.009,49.784 138.84,49.124 
			139.041,49.981 139.845,49.79 139.653,48.94 141.386,48.542 141.665,49.766 142.473,49.577 		"/>
		<polygon clip-path="url(#SVGID_2_)" fill="#EA158A" points="137.292,64.811 137.24,65.696 142.758,65.975 142.712,66.84 
			143.537,66.887 143.669,64.311 142.844,64.266 142.799,65.09 		"/>
		<polygon clip-path="url(#SVGID_2_)" fill="#EA158A" points="142.954,71.149 136.688,70.151 136.333,72.342 137.158,72.475 
			137.369,71.161 139.423,71.483 139.281,72.348 140.106,72.475 140.239,71.614 141.999,71.887 141.8,73.129 142.619,73.262 		"/>
		<path clip-path="url(#SVGID_2_)" fill="#EA158A" d="M136.944,78.459c-0.297-0.092-0.442-0.145-0.638-0.211
			c-0.619-0.223-0.762-0.385-0.665-0.666c0.101-0.266,0.261-0.293,0.777-0.105l3.282,1.189c0.517,0.201,0.629,0.318,0.522,0.584
			c-0.1,0.297-0.307,0.314-0.972,0.074c-0.139-0.055-0.211-0.086-0.399-0.176l-0.304,0.834c0.225,0.107,0.319,0.141,0.464,0.193
			c1.04,0.373,1.703,0.166,1.999-0.637c0.277-0.785-0.06-1.352-1.005-1.697l-3.286-1.193c-0.944-0.348-1.57-0.127-1.853,0.654
			c-0.295,0.811,0.081,1.391,1.139,1.783c0.166,0.053,0.312,0.1,0.637,0.207L136.944,78.459z"/>
		<polygon clip-path="url(#SVGID_2_)" fill="#EA158A" points="134.989,84.899 132.376,83.627 131.987,84.417 137.688,87.2 
			138.075,86.411 135.729,85.264 136.051,84.614 138.395,85.752 138.782,84.959 133.08,82.184 132.694,82.973 135.306,84.249 		"/>
		<polygon clip-path="url(#SVGID_2_)" fill="#EA158A" points="134.078,93.526 134.531,92.778 131.322,90.848 135.131,91.764 
			135.526,91.12 130.084,87.846 129.63,88.598 132.488,90.319 129.093,89.502 128.642,90.252 		"/>
		<path clip-path="url(#SVGID_2_)" fill="#EA158A" d="M127.989,98.579c0.556,0.508,0.701,0.59,1.021,0.641
			c0.371,0.057,0.786-0.109,1.091-0.439c0.298-0.328,0.412-0.76,0.32-1.123c-0.096-0.309-0.19-0.445-0.752-0.947l-2.318-2.09
			c-0.555-0.5-0.695-0.586-1.015-0.645c-0.386-0.061-0.799,0.104-1.097,0.426c-0.301,0.344-0.418,0.768-0.317,1.139
			c0.094,0.324,0.181,0.441,0.757,0.955L127.989,98.579z M125.983,95.581c-0.266-0.242-0.301-0.424-0.123-0.617
			c0.176-0.197,0.354-0.174,0.626,0.07l2.866,2.576c0.263,0.242,0.301,0.426,0.124,0.623c-0.177,0.195-0.354,0.172-0.63-0.076
			L125.983,95.581z"/>
		<polygon clip-path="url(#SVGID_2_)" fill="#EA158A" points="121.72,98.227 120.134,99.655 120.678,100.264 121.616,99.426 
			125.309,103.534 125.97,102.942 		"/>
		<path clip-path="url(#SVGID_2_)" fill="#EA158A" d="M118.044,107.319c0.454,0.594,0.578,0.715,0.881,0.828
			c0.357,0.125,0.794,0.035,1.154-0.221c0.354-0.281,0.552-0.674,0.526-1.043c-0.022-0.334-0.104-0.475-0.551-1.068l-1.878-2.504
			c-0.455-0.604-0.576-0.699-0.877-0.824c-0.36-0.133-0.799-0.053-1.156,0.221c-0.355,0.264-0.556,0.666-0.528,1.051
			c0.027,0.32,0.097,0.455,0.554,1.07L118.044,107.319z M116.651,103.993c-0.216-0.287-0.216-0.477-0.01-0.633
			c0.212-0.16,0.388-0.102,0.601,0.186l2.326,3.08c0.216,0.291,0.216,0.482,0.01,0.635c-0.212,0.164-0.387,0.094-0.605-0.188
			L116.651,103.993z"/>
		<path clip-path="url(#SVGID_2_)" fill="#EA158A" d="M110.874,109.709l1.146-0.562l-0.327-0.678l-0.351,0.176l-0.401-0.82
			c-0.15-0.32-0.177-0.373-0.205-0.492c-0.042-0.18,0.028-0.352,0.188-0.432c0.145-0.068,0.309-0.018,0.418,0.107
			c0.078,0.1,0.083,0.115,0.271,0.488l1.467,3.016c0.246,0.5,0.239,0.658-0.021,0.787c-0.274,0.135-0.438,0-0.751-0.641
			c-0.057-0.121-0.105-0.209-0.171-0.396l-0.795,0.396c0.092,0.23,0.145,0.344,0.204,0.463c0.482,0.982,1.111,1.297,1.879,0.916
			c0.741-0.363,0.896-1.002,0.45-1.914l-1.471-3.016c-0.245-0.518-0.393-0.723-0.642-0.904c-0.309-0.221-0.726-0.271-1.046-0.111
			c-0.286,0.129-0.45,0.412-0.511,0.84l-0.315-0.342l-0.421,0.209L110.874,109.709z"/>
		<polygon clip-path="url(#SVGID_2_)" fill="#EA158A" points="106.085,111.153 105.187,108.68 104.356,108.979 105.255,111.458 
			105.594,115.28 106.47,114.956 106.126,112.602 107.382,114.627 108.286,114.299 		"/>
		<path clip-path="url(#SVGID_2_)" fill="#EA158A" d="M44.847,95.506c0-0.369,0.295-0.66,0.659-0.66c0.368,0,0.663,0.291,0.663,0.66
			s-0.295,0.662-0.663,0.662C45.142,96.168,44.847,95.875,44.847,95.506"/>
		<path clip-path="url(#SVGID_2_)" fill="#EA158A" d="M139.803,57.258c0.022-0.369,0.342-0.633,0.705-0.611
			c0.365,0.021,0.64,0.342,0.614,0.705c-0.025,0.361-0.34,0.645-0.705,0.607C140.055,57.94,139.779,57.618,139.803,57.258"/>
		<path clip-path="url(#SVGID_2_)" fill="#EA158A" d="M132.793,34.877c0.04-0.361,0.36-0.627,0.724-0.588
			c0.366,0.035,0.628,0.365,0.587,0.73c-0.036,0.361-0.357,0.625-0.723,0.588C133.019,35.569,132.75,35.241,132.793,34.877"/>
		<path clip-path="url(#SVGID_2_)" fill="#EA158A" d="M35.506,45.065c0-0.363,0.293-0.658,0.659-0.658s0.658,0.295,0.658,0.658
			c0,0.365-0.292,0.666-0.658,0.666S35.506,45.43,35.506,45.065"/>
		<path clip-path="url(#SVGID_2_)" fill="#EA158A" d="M34.427,74.704c0-0.363,0.295-0.66,0.664-0.66c0.366,0,0.663,0.297,0.663,0.66
			c0,0.359-0.297,0.656-0.663,0.656C34.722,75.36,34.427,75.063,34.427,74.704"/>
		<path clip-path="url(#SVGID_2_)" d="M79.967,118.02l0.925,0.092l0.703-6.643l-0.58-0.072c-0.301,0.258-0.475,0.359-0.884,0.549
			l-0.074,0.664l0.473,0.051L79.967,118.02z"/>
		<path clip-path="url(#SVGID_2_)" fill-rule="evenodd" clip-rule="evenodd" d="M84.997,114.887c0.449-0.297,0.508-0.453,0.562-1.57
			c0.036-0.625-0.02-0.932-0.204-1.219c-0.187-0.283-0.513-0.455-0.899-0.471c-0.389-0.02-0.726,0.109-0.944,0.361
			c-0.225,0.285-0.314,0.576-0.348,1.211c-0.057,1.115-0.014,1.264,0.413,1.621c-0.535,0.178-0.58,0.322-0.665,1.914
			c-0.036,0.641,0.026,0.992,0.229,1.293c0.199,0.291,0.551,0.465,0.953,0.486c0.863,0.047,1.304-0.508,1.369-1.676
			C85.539,115.303,85.498,115.127,84.997,114.887 M84.054,112.95c0.021-0.385,0.117-0.535,0.36-0.518
			c0.229,0.002,0.304,0.166,0.292,0.555l-0.047,0.889c-0.022,0.387-0.119,0.527-0.354,0.518c-0.235-0.014-0.321-0.164-0.301-0.557
			L84.054,112.95z M83.864,115.917c0.029-0.449,0.126-0.586,0.396-0.572c0.261,0.023,0.351,0.176,0.33,0.609l-0.054,1.125
			c-0.031,0.43-0.137,0.588-0.396,0.576c-0.276-0.016-0.357-0.162-0.333-0.615L83.864,115.917z"/>
		<path clip-path="url(#SVGID_2_)" fill-rule="evenodd" clip-rule="evenodd" d="M89.084,114.875
			c0.425-0.342,0.466-0.496,0.428-1.605c-0.017-0.633-0.1-0.938-0.311-1.203s-0.546-0.406-0.936-0.393
			c-0.396,0.012-0.722,0.172-0.912,0.453c-0.205,0.287-0.257,0.594-0.236,1.221c0.038,1.121,0.092,1.262,0.546,1.584
			c-0.517,0.23-0.551,0.365-0.496,1.971c0.026,0.635,0.116,0.979,0.348,1.26c0.223,0.273,0.587,0.418,0.985,0.406
			c0.865-0.033,1.256-0.621,1.211-1.793C89.663,115.235,89.606,115.067,89.084,114.875 M87.979,113.026
			c-0.019-0.389,0.069-0.537,0.31-0.553c0.236-0.008,0.328,0.141,0.342,0.533l0.029,0.887c0.014,0.387-0.072,0.541-0.297,0.551
			c-0.24,0.012-0.344-0.143-0.353-0.527L87.979,113.026z M88.048,116.006c-0.016-0.457,0.074-0.596,0.344-0.605
			c0.264-0.01,0.362,0.146,0.385,0.57l0.036,1.131c0.016,0.426-0.079,0.586-0.34,0.594c-0.268,0.02-0.366-0.127-0.382-0.576
			L88.048,116.006z"/>
		<path clip-path="url(#SVGID_2_)" d="M91.609,116.37c0,0.176,0.01,0.256,0.029,0.428c0.131,1.006,0.643,1.502,1.427,1.41
			c0.408-0.053,0.769-0.27,0.955-0.574c0.193-0.311,0.217-0.582,0.137-1.264l-0.185-1.541c-0.119-0.969-0.521-1.494-1.094-1.418
			c-0.269,0.027-0.456,0.188-0.687,0.561l-0.121-1.613l1.375-0.162l-0.08-0.879l-2.161,0.266l0.314,3.426l0.789-0.094
			c0.048-0.365,0.172-0.572,0.364-0.594c0.188-0.023,0.309,0.119,0.347,0.439l0.249,1.998c0.041,0.344-0.052,0.549-0.268,0.572
			c-0.281,0.027-0.422-0.211-0.497-0.814l-0.028-0.252L91.609,116.37z"/>
		<path clip-path="url(#SVGID_2_)" d="M75.883,9.159c0-0.365,0.297-0.664,0.656-0.664c0.366,0,0.665,0.299,0.665,0.664
			c0,0.373-0.299,0.656-0.665,0.656C76.18,9.815,75.883,9.532,75.883,9.159"/>
		<path clip-path="url(#SVGID_2_)" d="M99.223,113.952c0.025-0.371,0.347-0.643,0.715-0.613c0.364,0.033,0.627,0.357,0.603,0.729
			c-0.036,0.361-0.356,0.627-0.722,0.592C99.455,114.627,99.187,114.315,99.223,113.952"/>
		<path clip-path="url(#SVGID_2_)" d="M73.831,114.081c0-0.367,0.299-0.656,0.661-0.656c0.364,0,0.663,0.289,0.663,0.656
			c0,0.363-0.299,0.658-0.663,0.658C74.129,114.739,73.831,114.444,73.831,114.081"/>
		<path clip-path="url(#SVGID_2_)" d="M69.832,111.022c0.069-0.133,0.09-0.191,0.139-0.307c0.209-0.518,0.245-0.789,0.162-1.131
			c-0.107-0.408-0.359-0.668-0.805-0.848c-0.762-0.312-1.374-0.041-1.69,0.748c-0.205,0.492-0.234,1.178-0.079,1.893l0.176,0.768
			c0.214,1.033,0.216,1.129,0.067,1.492c-0.138,0.357-0.342,0.498-0.562,0.404c-0.184-0.068-0.265-0.254-0.197-0.506
			c0.033-0.129,0.069-0.236,0.188-0.539l-0.834-0.246c-0.193,0.486-0.202,0.51-0.254,0.754c-0.102,0.578,0.18,1.066,0.732,1.293
			c0.733,0.289,1.412-0.008,1.721-0.781c0.213-0.521,0.216-0.996,0.013-1.959l-0.166-0.77c-0.185-0.697-0.187-0.969-0.031-1.357
			c0.15-0.373,0.357-0.533,0.6-0.438c0.328,0.133,0.345,0.371,0.095,0.99l-0.097,0.24L69.832,111.022z"/>
		<polygon clip-path="url(#SVGID_2_)" points="61.785,112.465 64.667,106.811 62.687,105.815 62.313,106.545 63.5,107.153 
			62.552,109.008 61.778,108.6 61.398,109.35 62.175,109.743 61.369,111.327 60.253,110.758 59.874,111.495 		"/>
		<path clip-path="url(#SVGID_2_)" fill-rule="evenodd" clip-rule="evenodd" d="M57.859,104.479l-0.654-0.459l0.684-1.266
			l-0.708-0.492l-2.958,5.674l0.931,0.656l4.352-4.701l-0.703-0.494L57.859,104.479z M56.805,104.756l0.499,0.346l-1.936,2.234
			L56.805,104.756z"/>
		<polygon clip-path="url(#SVGID_2_)" points="54.207,99.844 52.592,98.444 52.05,99.063 52.995,99.891 49.375,104.057 
			50.042,104.637 		"/>
		<path clip-path="url(#SVGID_2_)" fill-rule="evenodd" clip-rule="evenodd" d="M38.752,88.182
			c-0.649,0.379-0.777,0.488-0.928,0.768c-0.171,0.34-0.142,0.781,0.081,1.18c0.227,0.379,0.596,0.629,0.973,0.65
			c0.324,0.016,0.477-0.051,1.129-0.42l2.7-1.561c0.656-0.375,0.78-0.477,0.928-0.771c0.181-0.338,0.153-0.785-0.069-1.166
			c-0.225-0.393-0.598-0.639-0.984-0.652c-0.321-0.018-0.468,0.039-1.124,0.422L38.752,88.182z M42.219,87.204
			c0.312-0.178,0.499-0.154,0.63,0.066c0.133,0.232,0.054,0.402-0.261,0.584l-3.336,1.924c-0.312,0.182-0.504,0.156-0.632-0.064
			c-0.131-0.23-0.055-0.402,0.258-0.588L42.219,87.204z"/>
		<polygon clip-path="url(#SVGID_2_)" points="35.327,84.862 41.123,82.284 40.765,81.475 38.106,82.663 37.748,81.854 
			36.993,82.196 37.348,82.993 35.722,83.719 35.214,82.573 34.457,82.905 		"/>
		<polygon clip-path="url(#SVGID_2_)" points="36.986,66.739 36.927,65.86 31.417,66.241 31.364,65.379 30.534,65.434 30.714,68 
			31.542,67.948 31.483,67.124 		"/>
		<polygon clip-path="url(#SVGID_2_)" points="33.926,59.567 36.835,59.713 36.88,58.831 30.545,58.499 30.5,59.387 33.101,59.52 
			33.063,60.245 30.462,60.102 30.411,60.995 36.75,61.323 36.794,60.438 33.888,60.288 		"/>
		<polygon clip-path="url(#SVGID_2_)" points="30.981,53.907 37.249,54.899 37.595,52.713 36.775,52.583 36.57,53.895 
			34.511,53.567 34.646,52.706 33.828,52.583 33.693,53.436 31.934,53.165 32.134,51.93 31.316,51.792 		"/>
		<path clip-path="url(#SVGID_2_)" d="M39.938,36.278l-0.558,1.139l0.672,0.332l0.171-0.35l0.825,0.404
			c0.314,0.152,0.366,0.184,0.468,0.256c0.144,0.115,0.19,0.299,0.114,0.463c-0.069,0.133-0.229,0.203-0.4,0.164
			c-0.123-0.031-0.133-0.037-0.508-0.221l-3.017-1.467c-0.499-0.24-0.592-0.371-0.468-0.627c0.14-0.287,0.346-0.279,0.989,0.037
			c0.117,0.055,0.204,0.096,0.375,0.201l0.39-0.799c-0.216-0.119-0.324-0.176-0.445-0.24c-0.994-0.477-1.675-0.336-2.055,0.428
			c-0.362,0.752-0.079,1.35,0.82,1.793l3.023,1.471c0.511,0.25,0.76,0.328,1.063,0.316c0.378-0.016,0.737-0.232,0.895-0.559
			c0.14-0.275,0.099-0.592-0.121-0.977l0.456,0.072l0.205-0.426L39.938,36.278z"/>
		<polygon clip-path="url(#SVGID_2_)" points="39.85,30.307 44.915,34.127 46.25,32.352 45.591,31.848 44.785,32.92 43.125,31.67 
			43.649,30.967 42.988,30.473 42.46,31.168 41.037,30.092 41.796,29.096 41.138,28.602 		"/>
		<path clip-path="url(#SVGID_2_)" fill-rule="evenodd" clip-rule="evenodd" d="M46.667,24.352
			c-0.562-0.508-0.697-0.594-1.019-0.654c-0.378-0.053-0.787,0.109-1.088,0.443c-0.302,0.338-0.421,0.768-0.329,1.135
			c0.091,0.307,0.196,0.438,0.754,0.941l2.317,2.084c0.56,0.502,0.697,0.588,1.019,0.652c0.375,0.055,0.793-0.105,1.093-0.436
			c0.301-0.336,0.418-0.76,0.319-1.133c-0.091-0.314-0.188-0.439-0.749-0.947L46.667,24.352z M48.665,27.34
			c0.27,0.242,0.306,0.426,0.133,0.619c-0.18,0.201-0.362,0.18-0.625-0.066l-2.866-2.582c-0.268-0.238-0.302-0.426-0.133-0.617
			c0.178-0.195,0.359-0.176,0.632,0.068L48.665,27.34z"/>
		<path clip-path="url(#SVGID_2_)" fill-rule="evenodd" clip-rule="evenodd" d="M48.734,20.036l4.249,4.717l0.656-0.594l-1.803-2
			c0.095-0.092,0.112-0.113,0.214-0.242l2.203,1.689l0.708-0.637l-2.491-1.836c-0.038-0.602-0.161-0.861-0.694-1.451
			c-0.359-0.4-0.652-0.605-0.984-0.721c-0.477-0.158-0.825-0.033-1.414,0.502L48.734,20.036z M51.241,21.495l-1.297-1.434
			l0.097-0.084c0.351-0.316,0.568-0.287,0.974,0.158c0.394,0.443,0.467,0.539,0.537,0.684c0.078,0.193,0.021,0.377-0.221,0.592
			L51.241,21.495z"/>
		<path clip-path="url(#SVGID_2_)" d="M58.547,16.44l-1.088,0.66l0.386,0.639l0.335-0.197l0.471,0.783
			c0.18,0.297,0.211,0.35,0.245,0.467c0.064,0.176,0.004,0.363-0.151,0.449c-0.123,0.08-0.301,0.055-0.42-0.076
			c-0.09-0.098-0.097-0.1-0.311-0.457l-1.733-2.881c-0.28-0.475-0.292-0.637-0.042-0.783c0.263-0.158,0.436-0.043,0.805,0.572
			c0.074,0.117,0.121,0.197,0.206,0.375l0.754-0.461c-0.11-0.221-0.174-0.318-0.241-0.439c-0.57-0.939-1.218-1.195-1.951-0.754
			c-0.708,0.422-0.805,1.08-0.283,1.947l1.729,2.873c0.29,0.49,0.459,0.691,0.718,0.846c0.323,0.197,0.744,0.207,1.059,0.023
			c0.266-0.164,0.404-0.445,0.43-0.879l0.344,0.301l0.406-0.242L58.547,16.44z"/>
		<polygon clip-path="url(#SVGID_2_)" points="61.598,11.108 60.804,11.5 63.586,17.196 64.379,16.809 		"/>
		<path clip-path="url(#SVGID_2_)" fill-rule="evenodd" clip-rule="evenodd" d="M68.314,13.502l0.744-0.273l0.643,1.291l0.816-0.299
			l-2.949-5.684L66.493,8.93l1.354,6.26l0.81-0.293L68.314,13.502z M68.689,12.485l-0.573,0.211l-0.719-2.867L68.689,12.485z"/>
		<polygon clip-path="url(#SVGID_2_)" points="84.131,5.1 83.25,5.167 83.693,11.499 84.579,11.438 		"/>
		<polygon clip-path="url(#SVGID_2_)" points="91.71,5.25 90.82,5.206 90.626,8.94 89.658,5.139 88.894,5.1 88.559,11.442 
			89.447,11.481 89.622,8.161 90.49,11.543 91.38,11.586 		"/>
		<path clip-path="url(#SVGID_2_)" d="M95.445,10.26c-0.028,0.148-0.043,0.203-0.059,0.336c-0.086,0.543-0.063,0.818,0.104,1.131
			c0.184,0.369,0.496,0.57,0.972,0.65c0.812,0.125,1.35-0.279,1.478-1.104c0.087-0.535-0.044-1.213-0.35-1.869l-0.343-0.713
			c-0.442-0.965-0.466-1.049-0.409-1.438c0.064-0.377,0.225-0.562,0.461-0.525c0.204,0.027,0.316,0.191,0.309,0.455
			c-0.003,0.133-0.013,0.244-0.064,0.572l0.871,0.039c0.08-0.508,0.084-0.541,0.079-0.783c-0.036-0.594-0.415-0.998-1.008-1.092
			c-0.781-0.125-1.364,0.32-1.499,1.148C95.895,7.624,96,8.079,96.417,8.973l0.324,0.711c0.342,0.643,0.409,0.896,0.342,1.316
			c-0.059,0.4-0.228,0.6-0.489,0.557c-0.347-0.055-0.418-0.277-0.312-0.943l0.033-0.254L95.445,10.26z"/>
		<polygon clip-path="url(#SVGID_2_)" points="102.222,13.688 103.057,13.987 104.941,8.797 105.753,9.1 106.043,8.319 
			103.619,7.44 103.333,8.219 104.115,8.495 		"/>
		<polygon clip-path="url(#SVGID_2_)" points="110.844,10.288 110.042,9.897 107.258,15.598 108.056,15.983 		"/>
		<polygon clip-path="url(#SVGID_2_)" points="112.014,17.995 112.768,18.452 115.609,13.721 116.355,14.172 116.776,13.459 
			114.566,12.133 114.141,12.842 114.858,13.264 		"/>
		<path clip-path="url(#SVGID_2_)" d="M121.051,16.395l-0.703-0.537l-2.851,3.783c-0.451,0.598-0.535,0.744-0.558,1.072
			c-0.022,0.375,0.18,0.775,0.532,1.041c0.365,0.275,0.8,0.357,1.154,0.23c0.299-0.115,0.422-0.23,0.876-0.834l2.856-3.781
			l-0.713-0.533l-3.067,4.076c-0.219,0.287-0.393,0.35-0.602,0.184c-0.211-0.158-0.211-0.342,0.009-0.635L121.051,16.395z"/>
		<polygon clip-path="url(#SVGID_2_)" points="121.87,25.356 122.527,25.95 126.22,21.844 126.865,22.43 127.418,21.809 
			125.503,20.086 124.946,20.7 125.562,21.26 		"/>
		<polygon clip-path="url(#SVGID_2_)" points="130.78,25.549 125.709,29.368 127.046,31.141 127.706,30.639 126.907,29.577 
			128.568,28.321 129.102,29.022 129.761,28.52 129.229,27.829 130.653,26.758 131.405,27.764 132.064,27.26 		"/>
		<path clip-path="url(#SVGID_2_)" fill-rule="evenodd" clip-rule="evenodd" d="M139.041,43.516c0.71-0.248,0.852-0.338,1.053-0.59
			c0.222-0.307,0.272-0.742,0.124-1.168c-0.155-0.418-0.483-0.725-0.847-0.82c-0.319-0.066-0.479-0.035-1.188,0.219l-2.93,1.07
			c-0.703,0.258-0.85,0.344-1.05,0.596c-0.234,0.312-0.281,0.752-0.133,1.172c0.152,0.428,0.483,0.732,0.855,0.811
			c0.317,0.068,0.469,0.047,1.188-0.213L139.041,43.516z M135.457,43.889c-0.34,0.115-0.52,0.066-0.606-0.18
			c-0.089-0.252,0.018-0.402,0.354-0.52l3.622-1.32c0.34-0.125,0.524-0.07,0.611,0.168c0.086,0.254-0.018,0.406-0.353,0.533
			L135.457,43.889z"/>
		<polygon clip-path="url(#SVGID_2_)" points="141.995,47.495 135.809,48.922 136.009,49.784 138.84,49.124 139.041,49.981 
			139.845,49.79 139.653,48.94 141.386,48.542 141.665,49.766 142.473,49.577 		"/>
		<polygon clip-path="url(#SVGID_2_)" points="137.292,64.811 137.24,65.696 142.758,65.975 142.712,66.84 143.537,66.887 
			143.669,64.311 142.844,64.266 142.799,65.09 		"/>
		<polygon clip-path="url(#SVGID_2_)" points="142.954,71.149 136.688,70.151 136.333,72.342 137.158,72.475 137.369,71.161 
			139.423,71.483 139.281,72.348 140.106,72.475 140.239,71.614 141.999,71.887 141.8,73.129 142.619,73.262 		"/>
		<path clip-path="url(#SVGID_2_)" d="M136.944,78.459c-0.297-0.092-0.442-0.145-0.638-0.211c-0.619-0.223-0.762-0.385-0.665-0.666
			c0.101-0.266,0.261-0.293,0.777-0.105l3.282,1.189c0.517,0.201,0.629,0.318,0.522,0.584c-0.1,0.297-0.307,0.314-0.972,0.074
			c-0.139-0.055-0.211-0.086-0.399-0.176l-0.304,0.834c0.225,0.107,0.319,0.141,0.464,0.193c1.04,0.373,1.703,0.166,1.999-0.637
			c0.277-0.785-0.06-1.352-1.005-1.697l-3.286-1.193c-0.944-0.348-1.57-0.127-1.853,0.654c-0.295,0.811,0.081,1.391,1.139,1.783
			c0.166,0.053,0.312,0.1,0.637,0.207L136.944,78.459z"/>
		<polygon clip-path="url(#SVGID_2_)" points="134.989,84.899 132.376,83.627 131.987,84.417 137.688,87.2 138.075,86.411 
			135.729,85.264 136.051,84.614 138.395,85.752 138.782,84.959 133.08,82.184 132.694,82.973 135.306,84.249 		"/>
		<polygon clip-path="url(#SVGID_2_)" points="134.078,93.526 134.531,92.778 131.322,90.848 135.131,91.764 135.526,91.12 
			130.084,87.846 129.63,88.598 132.488,90.319 129.093,89.502 128.642,90.252 		"/>
		<path clip-path="url(#SVGID_2_)" fill-rule="evenodd" clip-rule="evenodd" d="M127.989,98.579c0.556,0.508,0.701,0.59,1.021,0.641
			c0.371,0.057,0.786-0.109,1.091-0.439c0.298-0.328,0.412-0.76,0.32-1.123c-0.096-0.309-0.19-0.445-0.752-0.947l-2.318-2.09
			c-0.555-0.5-0.695-0.586-1.015-0.645c-0.386-0.061-0.799,0.104-1.097,0.426c-0.301,0.344-0.418,0.768-0.317,1.139
			c0.094,0.324,0.181,0.441,0.757,0.955L127.989,98.579z M125.983,95.581c-0.266-0.242-0.301-0.424-0.123-0.617
			c0.176-0.197,0.354-0.174,0.626,0.07l2.866,2.576c0.263,0.242,0.301,0.426,0.124,0.623c-0.177,0.195-0.354,0.172-0.63-0.076
			L125.983,95.581z"/>
		<polygon clip-path="url(#SVGID_2_)" points="121.72,98.227 120.134,99.655 120.678,100.264 121.616,99.426 125.309,103.534 
			125.97,102.942 		"/>
		<path clip-path="url(#SVGID_2_)" fill-rule="evenodd" clip-rule="evenodd" d="M118.044,107.319
			c0.454,0.594,0.578,0.715,0.881,0.828c0.357,0.125,0.794,0.035,1.154-0.221c0.354-0.281,0.552-0.674,0.526-1.043
			c-0.022-0.334-0.104-0.475-0.551-1.068l-1.878-2.504c-0.455-0.604-0.576-0.699-0.877-0.824c-0.36-0.133-0.799-0.053-1.156,0.221
			c-0.355,0.264-0.556,0.666-0.528,1.051c0.027,0.32,0.097,0.455,0.554,1.07L118.044,107.319z M116.651,103.993
			c-0.216-0.287-0.216-0.477-0.01-0.633c0.212-0.16,0.388-0.102,0.601,0.186l2.326,3.08c0.216,0.291,0.216,0.482,0.01,0.635
			c-0.212,0.164-0.387,0.094-0.605-0.188L116.651,103.993z"/>
		<path clip-path="url(#SVGID_2_)" d="M110.874,109.709l1.146-0.562l-0.327-0.678l-0.351,0.176l-0.401-0.82
			c-0.15-0.32-0.177-0.373-0.205-0.492c-0.042-0.18,0.028-0.352,0.188-0.432c0.145-0.068,0.309-0.018,0.418,0.107
			c0.078,0.1,0.083,0.115,0.271,0.488l1.467,3.016c0.246,0.5,0.239,0.658-0.021,0.787c-0.274,0.135-0.438,0-0.751-0.641
			c-0.057-0.121-0.105-0.209-0.171-0.396l-0.795,0.396c0.092,0.23,0.145,0.344,0.204,0.463c0.482,0.982,1.111,1.297,1.879,0.916
			c0.741-0.363,0.896-1.002,0.45-1.914l-1.471-3.016c-0.245-0.518-0.393-0.723-0.642-0.904c-0.309-0.221-0.726-0.271-1.046-0.111
			c-0.286,0.129-0.45,0.412-0.511,0.84l-0.315-0.342l-0.421,0.209L110.874,109.709z"/>
		<polygon clip-path="url(#SVGID_2_)" points="106.085,111.153 105.187,108.68 104.356,108.979 105.255,111.458 105.594,115.28 
			106.47,114.956 106.126,112.602 107.382,114.627 108.286,114.299 		"/>
		<path clip-path="url(#SVGID_2_)" d="M44.847,95.506c0-0.369,0.295-0.66,0.659-0.66c0.368,0,0.663,0.291,0.663,0.66
			s-0.295,0.662-0.663,0.662C45.142,96.168,44.847,95.875,44.847,95.506"/>
		<path clip-path="url(#SVGID_2_)" d="M139.803,57.258c0.022-0.369,0.342-0.633,0.705-0.611c0.365,0.021,0.64,0.342,0.614,0.705
			c-0.025,0.361-0.34,0.645-0.705,0.607C140.055,57.94,139.779,57.618,139.803,57.258"/>
		<path clip-path="url(#SVGID_2_)" d="M132.793,34.877c0.04-0.361,0.36-0.627,0.724-0.588c0.366,0.035,0.628,0.365,0.587,0.73
			c-0.036,0.361-0.357,0.625-0.723,0.588C133.019,35.569,132.75,35.241,132.793,34.877"/>
		<path clip-path="url(#SVGID_2_)" d="M35.506,45.065c0-0.363,0.293-0.658,0.659-0.658s0.658,0.295,0.658,0.658
			c0,0.365-0.292,0.666-0.658,0.666S35.506,45.43,35.506,45.065"/>
		<path clip-path="url(#SVGID_2_)" d="M34.427,74.704c0-0.363,0.295-0.66,0.664-0.66c0.366,0,0.663,0.297,0.663,0.66
			c0,0.359-0.297,0.656-0.663,0.656C34.722,75.36,34.427,75.063,34.427,74.704"/>
	</g>
	<g>
		<defs>
			<path id="SVGID_3_" d="M85.356,17.415c-0.474,0.617-2.14,1.826-2.614,5.33c-2.821,3.869,0.364,8,1.619,9.352v0.891h5.196
				c-0.271-0.572-0.378-1.869,1.231-3.867c1.774-2.191,0.369-5.592-0.684-6.688c-1.045-1.102-1.144-2.816-1.198-3.762
				c-0.052-0.943-0.052-2.307-0.416-2.568c-0.368-0.26-0.521-0.52-1.52-0.773c-0.069-0.02-0.137-0.029-0.197-0.029
				C85.957,15.299,85.788,16.833,85.356,17.415"/>
		</defs>
		<clipPath id="SVGID_4_">
			<use xlink:href="#SVGID_3_"  overflow="visible"/>
		</clipPath>
		<g clip-path="url(#SVGID_4_)">
			<defs>
				<rect id="SVGID_5_" x="-240.917" y="-677.562" width="1014.909" height="1313.413"/>
			</defs>
			<clipPath id="SVGID_6_">
				<use xlink:href="#SVGID_5_"  overflow="visible"/>
			</clipPath>
			<path clip-path="url(#SVGID_6_)" fill="none" stroke="#000000" stroke-width="0.278" stroke-miterlimit="3.864" d="
				M86.873,15.268c0.312,0.475-0.107,7.422-0.159,8.523c-0.055,1.09-2.04,2.871-2.299,5.695 M82.789,22.163
				c-0.101,1.729-0.517,5.965,3.244,8.783 M88.226,15.948c-0.257,0.365-0.767,4.473,0.054,9.143
				c0.364,2.094-0.625,2.514-1.566,4.396c-0.941,1.879-1.359,2.881-1.152,4.023 M90.429,29.596c-1.367,1.5-2.356,2.293-2.356,3.023
				v1.572"/>
		</g>
	</g>
	<g>
		<defs>
			<rect id="SVGID_7_" x="25.359" y="0" width="123.461" height="123.453"/>
		</defs>
		<clipPath id="SVGID_8_">
			<use xlink:href="#SVGID_7_"  overflow="visible"/>
		</clipPath>
		<path clip-path="url(#SVGID_8_)" fill="none" stroke="#000000" stroke-width="0.278" stroke-miterlimit="3.864" d="M84.361,32.987
			v-0.891c-1.255-1.354-4.44-5.482-1.619-9.352c0.475-3.502,2.141-4.713,2.612-5.33c0.468-0.625,0.627-2.355,1.62-2.086
			c0.998,0.252,1.148,0.514,1.517,0.773c0.364,0.262,0.364,1.625,0.416,2.568c0.055,0.943,0.155,2.662,1.201,3.76
			c1.047,1.098,2.457,4.498,0.683,6.686c-1.611,2-1.504,3.299-1.233,3.871H84.361z"/>
		<path clip-path="url(#SVGID_8_)" fill="#EA158A" d="M55.908,84.024c0.392,0.047,0.632,0.057,0.882-0.102
			c0.08-0.062,0.303-0.219,0.363-0.674c0.014-0.102,0.072-0.512-0.247-0.799c-0.218-0.197-0.487-0.238-0.744-0.266l-1.041-0.152
			l-0.37,2.629l0.674,0.098l0.108-0.787L55.908,84.024z M55.973,82.709c0.266,0.035,0.542,0.068,0.494,0.438
			c-0.024,0.15-0.105,0.264-0.242,0.301c-0.086,0.023-0.185,0.01-0.342-0.01l-0.27-0.041l0.105-0.727L55.973,82.709z"/>
		<path clip-path="url(#SVGID_8_)" fill="#EA158A" d="M57.983,82.393l-0.142,2.646l0.677,0.035l0.047-0.893l0.347,0.02l0.436,0.918
			l0.737,0.035l-0.492-1.033c0.366-0.088,0.558-0.398,0.58-0.73c0.014-0.295-0.092-0.527-0.247-0.674
			c-0.254-0.244-0.609-0.264-0.899-0.277L57.983,82.393z M58.891,82.989c0.171,0.01,0.362,0.018,0.468,0.092
			c0.04,0.035,0.121,0.123,0.114,0.271c-0.007,0.104-0.054,0.236-0.195,0.283c-0.093,0.047-0.202,0.035-0.454,0.027l-0.231-0.018
			l0.036-0.67L58.891,82.989z"/>
		<path clip-path="url(#SVGID_8_)" fill="#EA158A" d="M62.056,82.325c-0.24,0.014-0.56,0.088-0.848,0.359
			c-0.389,0.373-0.399,0.842-0.389,1.092c0.024,0.369,0.169,0.715,0.438,0.965c0.364,0.332,0.771,0.338,0.982,0.324
			c0.247-0.02,0.565-0.086,0.849-0.367c0.389-0.379,0.4-0.85,0.38-1.09C63.419,82.864,62.891,82.268,62.056,82.325 M62.09,82.905
			c0.429-0.041,0.637,0.309,0.671,0.744c0.009,0.225-0.014,0.459-0.153,0.631c-0.061,0.074-0.192,0.193-0.398,0.207
			c-0.416,0.023-0.641-0.307-0.677-0.768C61.507,83.284,61.685,82.938,62.09,82.905"/>
		<path clip-path="url(#SVGID_8_)" fill="#EA158A" d="M65.641,83.284l0.052,0.529l0.487-0.062c-0.009,0.273-0.285,0.398-0.506,0.426
			c-0.523,0.051-0.667-0.434-0.696-0.729c-0.021-0.23,0.004-0.459,0.157-0.633c0.094-0.115,0.263-0.201,0.432-0.225
			c0.394-0.033,0.598,0.252,0.656,0.336l0.44-0.404c-0.148-0.156-0.499-0.568-1.221-0.49c-0.854,0.09-1.243,0.775-1.169,1.523
			c0.083,0.799,0.649,1.299,1.435,1.213c0.432-0.041,0.575-0.258,0.627-0.346l0.027,0.238l0.515-0.066l-0.148-1.428L65.641,83.284z"
			/>
		<path clip-path="url(#SVGID_8_)" fill="#EA158A" d="M67.698,81.823l0.321,2.637l0.675-0.08l-0.108-0.896l0.342-0.039l0.585,0.838
			l0.73-0.1l-0.656-0.932c0.344-0.154,0.483-0.49,0.442-0.826c-0.033-0.283-0.182-0.498-0.355-0.623
			c-0.294-0.189-0.646-0.15-0.941-0.109L67.698,81.823z M68.701,82.252c0.166-0.021,0.359-0.041,0.479,0.02
			c0.04,0.02,0.135,0.08,0.15,0.238c0.014,0.115-0.011,0.246-0.139,0.32c-0.086,0.051-0.196,0.066-0.443,0.1l-0.229,0.023
			l-0.081-0.668L68.701,82.252z"/>
		<polygon clip-path="url(#SVGID_8_)" fill="#EA158A" points="71.868,83.418 71.792,82.805 72.839,82.67 72.776,82.165 
			71.729,82.292 71.674,81.862 72.997,81.706 72.936,81.172 70.946,81.415 71.268,84.053 73.368,83.793 73.304,83.243 		"/>
		<path clip-path="url(#SVGID_8_)" fill="#EA158A" d="M75.17,82.538c0.294,0.016,0.38,0.02,0.456,0.1
			c0.021,0.027,0.034,0.072,0.041,0.107c0.007,0.07-0.025,0.135-0.079,0.188c-0.097,0.08-0.266,0.113-0.344,0.117
			c-0.434,0.047-0.639-0.17-0.76-0.293l-0.459,0.447c0.331,0.385,0.879,0.439,1.248,0.393c0.558-0.051,1.131-0.348,1.054-1.012
			c-0.056-0.561-0.47-0.639-0.596-0.668c-0.112-0.02-0.144-0.033-0.553-0.049c-0.271-0.01-0.396-0.016-0.461-0.068
			c-0.04-0.027-0.071-0.084-0.085-0.125c-0.014-0.164,0.159-0.25,0.351-0.277c0.361-0.033,0.575,0.172,0.69,0.277l0.425-0.414
			c-0.311-0.34-0.77-0.426-1.172-0.385c-0.553,0.061-1.019,0.354-0.957,0.947c0.022,0.209,0.126,0.408,0.303,0.529
			c0.212,0.146,0.479,0.164,0.713,0.18L75.17,82.538z"/>
		<path clip-path="url(#SVGID_8_)" fill="#EA158A" d="M78.36,82.292c0.293,0.039,0.383,0.047,0.45,0.141
			c0.021,0.023,0.031,0.066,0.031,0.1c0,0.078-0.031,0.139-0.099,0.18c-0.102,0.078-0.266,0.094-0.351,0.094
			c-0.432,0.006-0.621-0.221-0.727-0.365l-0.499,0.412c0.297,0.414,0.834,0.512,1.21,0.504c0.56-0.012,1.155-0.26,1.137-0.92
			c-0.009-0.568-0.411-0.684-0.534-0.723c-0.11-0.031-0.148-0.031-0.545-0.092c-0.271-0.035-0.393-0.053-0.456-0.113
			c-0.045-0.033-0.069-0.074-0.069-0.133c0-0.152,0.178-0.227,0.371-0.236c0.359-0.006,0.562,0.225,0.663,0.328l0.451-0.371
			c-0.276-0.369-0.722-0.492-1.124-0.486c-0.558,0.014-1.047,0.262-1.04,0.857c0.004,0.215,0.094,0.416,0.256,0.559
			c0.198,0.158,0.465,0.205,0.701,0.246L78.36,82.292z"/>
		<path clip-path="url(#SVGID_8_)" fill="#EA158A" d="M82.757,87.315l-0.577,2.764l0.663-0.09l0.074-0.373l0.976-0.133l0.173,0.326
			l0.71-0.098l-1.362-2.484L82.757,87.315z M83.205,88.129l0.447,0.887l-0.634,0.096L83.205,88.129z"/>
		<polygon clip-path="url(#SVGID_8_)" fill="#EA158A" points="87.19,87.036 87.216,88.618 86.222,87.053 85.568,87.069 
			85.62,89.723 86.251,89.708 86.226,88.118 87.212,89.684 87.873,89.68 87.828,87.02 		"/>
		<path clip-path="url(#SVGID_8_)" fill="#EA158A" d="M89.345,87.049l-0.229,2.654l0.706,0.057c0.459,0.043,0.733,0.066,0.979-0.01
			c0.47-0.125,0.631-0.5,0.694-0.664c0.059-0.16,0.092-0.322,0.11-0.488c0.04-0.465-0.102-0.83-0.276-1.023
			c-0.309-0.367-0.776-0.408-1.433-0.469L89.345,87.049z M90.234,87.725c0.211,0.025,0.544,0.061,0.641,0.477
			c0.029,0.121,0.029,0.248,0.02,0.369c-0.011,0.096-0.024,0.174-0.049,0.26c-0.142,0.395-0.45,0.387-0.744,0.367l-0.274-0.027
			l0.128-1.471L90.234,87.725z"/>
		<path clip-path="url(#SVGID_8_)" fill="#EA158A" d="M98.428,82.741c0.284,0.078,0.366,0.102,0.415,0.205
			c0.016,0.027,0.02,0.062,0.016,0.113c-0.007,0.066-0.057,0.117-0.124,0.158c-0.108,0.064-0.278,0.049-0.357,0.027
			c-0.43-0.061-0.576-0.312-0.661-0.467l-0.558,0.318c0.229,0.459,0.746,0.646,1.115,0.699c0.554,0.066,1.176-0.076,1.271-0.736
			c0.077-0.562-0.298-0.74-0.416-0.787c-0.103-0.061-0.141-0.07-0.529-0.182c-0.259-0.076-0.373-0.123-0.431-0.178
			c-0.032-0.045-0.053-0.094-0.052-0.15c0.03-0.148,0.22-0.207,0.408-0.178c0.356,0.047,0.515,0.299,0.604,0.436l0.508-0.305
			c-0.216-0.4-0.638-0.59-1.044-0.656c-0.543-0.07-1.068,0.1-1.149,0.684c-0.028,0.213,0.021,0.441,0.164,0.596
			c0.165,0.191,0.422,0.273,0.643,0.35L98.428,82.741z"/>
		<polygon clip-path="url(#SVGID_8_)" fill="#EA158A" points="101.196,83.596 101.28,82.993 102.325,83.131 102.399,82.625 
			101.359,82.469 101.411,82.053 102.736,82.231 102.804,81.706 100.832,81.434 100.456,84.071 102.553,84.354 102.628,83.797 		"/>
		<path clip-path="url(#SVGID_8_)" fill="#EA158A" d="M103.858,81.788l-0.228,2.648l0.67,0.057l0.075-0.895l0.342,0.025l0.408,0.939
			l0.733,0.074l-0.451-1.055c0.37-0.084,0.575-0.379,0.604-0.719c0.027-0.287-0.073-0.525-0.221-0.68
			c-0.248-0.256-0.602-0.271-0.899-0.301L103.858,81.788z M104.747,82.418c0.168,0.014,0.361,0.037,0.463,0.113
			c0.042,0.037,0.121,0.119,0.104,0.273c-0.008,0.104-0.062,0.23-0.201,0.277c-0.099,0.035-0.213,0.035-0.459,0.014l-0.226-0.037
			l0.056-0.66L104.747,82.418z"/>
		<polygon clip-path="url(#SVGID_8_)" fill="#EA158A" points="108.239,82.151 107.728,83.911 107.22,82.151 106.556,82.151 
			107.359,84.805 108.104,84.805 108.91,82.151 		"/>
		<polygon clip-path="url(#SVGID_8_)" fill="#EA158A" points="110.453,82.165 109.762,82.165 109.749,84.819 110.436,84.819 		"/>
		<path clip-path="url(#SVGID_8_)" fill="#EA158A" d="M113.83,82.625c-0.074-0.094-0.199-0.26-0.472-0.395
			c-0.154-0.066-0.346-0.109-0.569-0.109c-0.222,0-0.624,0.043-0.951,0.395c-0.32,0.348-0.347,0.75-0.347,0.941
			c0,0.725,0.457,1.42,1.333,1.42c0.359,0,0.706-0.139,0.955-0.389c0.02-0.029,0.045-0.053,0.071-0.088l-0.474-0.42
			c-0.074,0.105-0.225,0.312-0.528,0.312c-0.337,0-0.646-0.26-0.646-0.826c0-0.479,0.273-0.758,0.589-0.758
			c0.295,0,0.458,0.199,0.55,0.314L113.83,82.625z"/>
		<polygon clip-path="url(#SVGID_8_)" fill="#EA158A" points="115.358,84.034 115.244,83.432 116.277,83.231 116.176,82.711 
			115.14,82.918 115.058,82.499 116.363,82.243 116.263,81.715 114.3,82.1 114.8,84.708 116.886,84.309 116.771,83.76 		"/>
		<path clip-path="url(#SVGID_8_)" fill-rule="evenodd" clip-rule="evenodd" d="M55.908,84.024c0.392,0.047,0.632,0.057,0.882-0.102
			c0.08-0.062,0.303-0.219,0.363-0.674c0.014-0.102,0.072-0.512-0.247-0.799c-0.218-0.197-0.487-0.238-0.744-0.266l-1.041-0.152
			l-0.37,2.629l0.674,0.098l0.108-0.787L55.908,84.024z M55.973,82.709c0.266,0.035,0.542,0.068,0.494,0.438
			c-0.024,0.15-0.105,0.264-0.242,0.301c-0.086,0.023-0.185,0.01-0.342-0.01l-0.27-0.041l0.105-0.727L55.973,82.709z"/>
		<path clip-path="url(#SVGID_8_)" fill-rule="evenodd" clip-rule="evenodd" d="M57.983,82.393l-0.142,2.646l0.677,0.035
			l0.047-0.893l0.347,0.02l0.436,0.918l0.737,0.035l-0.492-1.033c0.366-0.088,0.558-0.398,0.58-0.73
			c0.014-0.295-0.092-0.527-0.247-0.674c-0.254-0.244-0.609-0.264-0.899-0.277L57.983,82.393z M58.891,82.989
			c0.171,0.01,0.362,0.018,0.468,0.092c0.04,0.035,0.121,0.123,0.114,0.271c-0.007,0.104-0.054,0.236-0.195,0.283
			c-0.093,0.047-0.202,0.035-0.454,0.027l-0.231-0.018l0.036-0.67L58.891,82.989z"/>
		<path clip-path="url(#SVGID_8_)" fill-rule="evenodd" clip-rule="evenodd" d="M62.056,82.325c-0.24,0.014-0.56,0.088-0.848,0.359
			c-0.389,0.373-0.399,0.842-0.389,1.092c0.024,0.369,0.169,0.715,0.438,0.965c0.364,0.332,0.771,0.338,0.982,0.324
			c0.247-0.02,0.565-0.086,0.849-0.367c0.389-0.379,0.4-0.85,0.38-1.09C63.419,82.864,62.891,82.268,62.056,82.325 M62.09,82.905
			c0.429-0.041,0.637,0.309,0.671,0.744c0.009,0.225-0.014,0.459-0.153,0.631c-0.061,0.074-0.192,0.193-0.398,0.207
			c-0.416,0.023-0.641-0.307-0.677-0.768C61.507,83.284,61.685,82.938,62.09,82.905"/>
		<path clip-path="url(#SVGID_8_)" d="M65.641,83.284l0.052,0.529l0.487-0.062c-0.009,0.273-0.285,0.398-0.506,0.426
			c-0.523,0.051-0.667-0.434-0.696-0.729c-0.021-0.23,0.004-0.459,0.157-0.633c0.094-0.115,0.263-0.201,0.432-0.225
			c0.394-0.033,0.598,0.252,0.656,0.336l0.44-0.404c-0.148-0.156-0.499-0.568-1.221-0.49c-0.854,0.09-1.243,0.775-1.169,1.523
			c0.083,0.799,0.649,1.299,1.435,1.213c0.432-0.041,0.575-0.258,0.627-0.346l0.027,0.238l0.515-0.066l-0.148-1.428L65.641,83.284z"
			/>
		<path clip-path="url(#SVGID_8_)" fill-rule="evenodd" clip-rule="evenodd" d="M67.698,81.823l0.321,2.637l0.675-0.08l-0.108-0.896
			l0.342-0.039l0.585,0.838l0.73-0.1l-0.656-0.932c0.344-0.154,0.483-0.49,0.442-0.826c-0.033-0.283-0.182-0.498-0.355-0.623
			c-0.294-0.189-0.646-0.15-0.941-0.109L67.698,81.823z M68.701,82.252c0.166-0.021,0.359-0.041,0.479,0.02
			c0.04,0.02,0.135,0.08,0.15,0.238c0.014,0.115-0.011,0.246-0.139,0.32c-0.086,0.051-0.196,0.066-0.443,0.1l-0.229,0.023
			l-0.081-0.668L68.701,82.252z"/>
		<polygon clip-path="url(#SVGID_8_)" points="71.868,83.418 71.792,82.805 72.839,82.67 72.776,82.165 71.729,82.292 
			71.674,81.862 72.997,81.706 72.936,81.172 70.946,81.415 71.268,84.053 73.368,83.793 73.304,83.243 		"/>
		<path clip-path="url(#SVGID_8_)" d="M75.17,82.538c0.294,0.016,0.38,0.02,0.456,0.1c0.021,0.027,0.034,0.072,0.041,0.107
			c0.007,0.07-0.025,0.135-0.079,0.188c-0.097,0.08-0.266,0.113-0.344,0.117c-0.434,0.047-0.639-0.17-0.76-0.293l-0.459,0.447
			c0.331,0.385,0.879,0.439,1.248,0.393c0.558-0.051,1.131-0.348,1.054-1.012c-0.056-0.561-0.47-0.639-0.596-0.668
			c-0.112-0.02-0.144-0.033-0.553-0.049c-0.271-0.01-0.396-0.016-0.461-0.068c-0.04-0.027-0.071-0.084-0.085-0.125
			c-0.014-0.164,0.159-0.25,0.351-0.277c0.361-0.033,0.575,0.172,0.69,0.277l0.425-0.414c-0.311-0.34-0.77-0.426-1.172-0.385
			c-0.553,0.061-1.019,0.354-0.957,0.947c0.022,0.209,0.126,0.408,0.303,0.529c0.212,0.146,0.479,0.164,0.713,0.18L75.17,82.538z"/>
		<path clip-path="url(#SVGID_8_)" d="M78.36,82.292c0.293,0.039,0.383,0.047,0.45,0.141c0.021,0.023,0.031,0.066,0.031,0.1
			c0,0.078-0.031,0.139-0.099,0.18c-0.102,0.078-0.266,0.094-0.351,0.094c-0.432,0.006-0.621-0.221-0.727-0.365l-0.499,0.412
			c0.297,0.414,0.834,0.512,1.21,0.504c0.56-0.012,1.155-0.26,1.137-0.92c-0.009-0.568-0.411-0.684-0.534-0.723
			c-0.11-0.031-0.148-0.031-0.545-0.092c-0.271-0.035-0.393-0.053-0.456-0.113c-0.045-0.033-0.069-0.074-0.069-0.133
			c0-0.152,0.178-0.227,0.371-0.236c0.359-0.006,0.562,0.225,0.663,0.328l0.451-0.371c-0.276-0.369-0.722-0.492-1.124-0.486
			c-0.558,0.014-1.047,0.262-1.04,0.857c0.004,0.215,0.094,0.416,0.256,0.559c0.198,0.158,0.465,0.205,0.701,0.246L78.36,82.292z"/>
		<path clip-path="url(#SVGID_8_)" fill-rule="evenodd" clip-rule="evenodd" d="M82.757,87.315l-0.577,2.764l0.663-0.09l0.074-0.373
			l0.976-0.133l0.173,0.326l0.71-0.098l-1.362-2.484L82.757,87.315z M83.205,88.129l0.447,0.887l-0.634,0.096L83.205,88.129z"/>
		<polygon clip-path="url(#SVGID_8_)" points="87.19,87.036 87.216,88.618 86.222,87.053 85.568,87.069 85.62,89.723 86.251,89.708 
			86.226,88.118 87.212,89.684 87.873,89.68 87.828,87.02 		"/>
		<path clip-path="url(#SVGID_8_)" fill-rule="evenodd" clip-rule="evenodd" d="M89.345,87.049l-0.229,2.654l0.706,0.057
			c0.459,0.043,0.733,0.066,0.979-0.01c0.47-0.125,0.631-0.5,0.694-0.664c0.059-0.16,0.092-0.322,0.11-0.488
			c0.04-0.465-0.102-0.83-0.276-1.023c-0.309-0.367-0.776-0.408-1.433-0.469L89.345,87.049z M90.234,87.725
			c0.211,0.025,0.544,0.061,0.641,0.477c0.029,0.121,0.029,0.248,0.02,0.369c-0.011,0.096-0.024,0.174-0.049,0.26
			c-0.142,0.395-0.45,0.387-0.744,0.367l-0.274-0.027l0.128-1.471L90.234,87.725z"/>
		<path clip-path="url(#SVGID_8_)" d="M98.428,82.741c0.284,0.078,0.366,0.102,0.415,0.205c0.016,0.027,0.02,0.062,0.016,0.113
			c-0.007,0.066-0.057,0.117-0.124,0.158c-0.108,0.064-0.278,0.049-0.357,0.027c-0.43-0.061-0.576-0.312-0.661-0.467l-0.558,0.318
			c0.229,0.459,0.746,0.646,1.115,0.699c0.554,0.066,1.176-0.076,1.271-0.736c0.077-0.562-0.298-0.74-0.416-0.787
			c-0.103-0.061-0.141-0.07-0.529-0.182c-0.259-0.076-0.373-0.123-0.431-0.178c-0.032-0.045-0.053-0.094-0.052-0.15
			c0.03-0.148,0.22-0.207,0.408-0.178c0.356,0.047,0.515,0.299,0.604,0.436l0.508-0.305c-0.216-0.4-0.638-0.59-1.044-0.656
			c-0.543-0.07-1.068,0.1-1.149,0.684c-0.028,0.213,0.021,0.441,0.164,0.596c0.165,0.191,0.422,0.273,0.643,0.35L98.428,82.741z"/>
		<polygon clip-path="url(#SVGID_8_)" points="101.196,83.596 101.28,82.993 102.325,83.131 102.399,82.625 101.359,82.469 
			101.411,82.053 102.736,82.231 102.804,81.706 100.832,81.434 100.456,84.071 102.553,84.354 102.628,83.797 		"/>
		<path clip-path="url(#SVGID_8_)" fill-rule="evenodd" clip-rule="evenodd" d="M103.858,81.788l-0.228,2.648l0.67,0.057
			l0.075-0.895l0.342,0.025l0.408,0.939l0.733,0.074l-0.451-1.055c0.37-0.084,0.575-0.379,0.604-0.719
			c0.027-0.287-0.073-0.525-0.221-0.68c-0.248-0.256-0.602-0.271-0.899-0.301L103.858,81.788z M104.747,82.418
			c0.168,0.014,0.361,0.037,0.463,0.113c0.042,0.037,0.121,0.119,0.104,0.273c-0.008,0.104-0.062,0.23-0.201,0.277
			c-0.099,0.035-0.213,0.035-0.459,0.014l-0.226-0.037l0.056-0.66L104.747,82.418z"/>
		<polygon clip-path="url(#SVGID_8_)" points="108.239,82.151 107.728,83.911 107.22,82.151 106.556,82.151 107.359,84.805 
			108.104,84.805 108.91,82.151 		"/>
		<polygon clip-path="url(#SVGID_8_)" points="110.453,82.165 109.762,82.165 109.749,84.819 110.436,84.819 		"/>
		<path clip-path="url(#SVGID_8_)" d="M113.83,82.625c-0.074-0.094-0.199-0.26-0.472-0.395c-0.154-0.066-0.346-0.109-0.569-0.109
			c-0.222,0-0.624,0.043-0.951,0.395c-0.32,0.348-0.347,0.75-0.347,0.941c0,0.725,0.457,1.42,1.333,1.42
			c0.359,0,0.706-0.139,0.955-0.389c0.02-0.029,0.045-0.053,0.071-0.088l-0.474-0.42c-0.074,0.105-0.225,0.312-0.528,0.312
			c-0.337,0-0.646-0.26-0.646-0.826c0-0.479,0.273-0.758,0.589-0.758c0.295,0,0.458,0.199,0.55,0.314L113.83,82.625z"/>
		<polygon clip-path="url(#SVGID_8_)" points="115.358,84.034 115.244,83.432 116.277,83.231 116.176,82.711 115.14,82.918 
			115.058,82.499 116.363,82.243 116.263,81.715 114.3,82.1 114.8,84.708 116.886,84.309 116.771,83.76 		"/>
		
			<path clip-path="url(#SVGID_8_)" fill="none" stroke="#000000" stroke-width="0.278" stroke-linejoin="round" stroke-miterlimit="3.864" d="
			M77.254,85.096L77.254,85.096c1.254-0.104,3.882-0.408,4.021,0.523c0.207,1.363-4.496,3.711-5.962,4.758 M96.015,84.936
			L96.015,84.936c-1.778-0.576-3.417-0.684-4.232,0.111c-1.882,1.828,5.643,2.301,6.219,5.492"/>
		
			<path clip-path="url(#SVGID_8_)" fill="none" stroke="#000000" stroke-width="0.278" stroke-linejoin="round" stroke-miterlimit="3.864" d="
			M53.665,68.208c-0.839,1.193-1.365,1.883-1.365,3.189 M121.872,67.631c0.68,1.26,1.515,3.766-2.301,4.498"/>
		
			<path clip-path="url(#SVGID_8_)" fill="none" stroke="#000000" stroke-width="0.278" stroke-linejoin="round" stroke-miterlimit="3.864" d="
			M48.927,72.6c-2.093-0.779-1.571-2.094-1.364-2.818c0.211-0.727,1.151-2.615,1.882-3.664c1.778-0.723,3.032,0.533,4.184,2.1
			c1.778-0.941,5.957-0.635,6.166,5.434c-2.191,2.721-5.643,3.816-4.914,6.691c5.962,1.988,24.462-2.721,26.24-0.111
			c-0.104,2.725,0.311,4.4,0.209,5.76c2.089,0,7.416-0.48,10.134-0.162c-0.104-2.816-0.2-5.598-0.2-5.598
			c2.819-4.07,20.164,4.545,29.684-2.355c-1.467-1.68-1.239-1.086-2.51-1.197c-1.248-0.1-6.274-2.924-2.611-8.354
			c2.238-3.324,5.438-1.887,6.07-0.635c1.878-2.09,3.025-2.4,4.384-1.355c0.415,1.463,0.313,2.09,0.522,3.346
			c0.209,1.254-0.311,2.506-3.137,3.863c0.839-1.457,0.941-2.135,1.046-3.34c-2.612,2.191-5.643,3.973-6.274,2.301
			c-0.625-1.676,3.037-1.998,1.257-3.771c-1.773-1.77-4.91,3.979-0.208,7.529c1.805,1.365,1.675,1.779,1.565,3.668
			c-0.101,1.871,0,2.82,0,4.07c0,1.254-1.414,1.576-3.862,1.99c-6.274,1.045-15.684-0.107-21.224-1.055
			c0.94,2.619,2.3,4.393,2.094,5.654c-0.211,1.25-0.941,1.467-6.488,0.621c-5.538-0.83-11.072,0.422-13.903,1.26
			c-2.818,0.83-3.552-0.631-2.611-1.67c0.939-1.051,2.093-3.559,2.198-5.652c-5.332-0.213-17.683,3.525-24.777,0.215
			c-0.784-0.371-0.523-1.674-0.629-2.932c-0.104-1.26-0.414-3.766,0.739-4.596c1.146-0.842,2.819-1.887,4.696-2.195
			c0.423-1.568,0.107-1.887-0.104-2.623c-1.459,0.941-4.914,0.736-4.914-1.559c-1.043-1.148-1.564-1.359-2.927-1.461
			C48.982,70.799,48.818,71.459,48.927,72.6z"/>
		<path clip-path="url(#SVGID_8_)" d="M47.285,71.133c0.107-1.229,1.717-1.52,2.342-1.268c0.245,0.098-1.014,0.91-0.611,2.84
			C49.015,72.706,47.246,71.581,47.285,71.133"/>
		<path clip-path="url(#SVGID_8_)" d="M53.507,73.069c-0.315-0.131-1.538-1.08-0.311-2.012c1.854-1.412,3.716,0.867,4.132,1.75
			c0,0,0.456,0.543-1.958,0.703C53.918,73.606,53.507,73.069,53.507,73.069"/>
		<path clip-path="url(#SVGID_8_)" d="M124.439,70.153c0.876-0.779,1.442-1.033,2.377-0.826c0.402,0.088-0.162,2.01-0.808,2.732
			c-0.906,1.023-2.25,1.369-2.091,1.047C125.27,70.403,124.439,70.153,124.439,70.153"/>
		<path clip-path="url(#SVGID_8_)" d="M54.775,79.071c-0.369,1.025,0.805,1.609,0.805,1.609s-1.048-0.082-2.655-0.531
			c-0.928-0.26-1.155-0.664-0.886-1.4c0.697-1.904,5.632-3.137,5.632-3.137S55.499,77.059,54.775,79.071"/>
		
			<line clip-path="url(#SVGID_8_)" fill="none" stroke="#000000" stroke-width="0.278" stroke-miterlimit="3.864" x1="91.353" y1="82.637" x2="81.105" y2="82.637"/>
		<path clip-path="url(#SVGID_8_)" fill="none" stroke="#000000" stroke-width="0.278" stroke-miterlimit="3.864" d="M75.894,79.297
			c0-0.229-0.119-0.695,0.421-0.943H97.95c0.472,0.066,0.417,0.818,0.417,1.049"/>
		<path clip-path="url(#SVGID_8_)" fill="none" stroke="#000000" stroke-width="0.189" stroke-miterlimit="3.864" d="M78.439,78.157
			v-1.76c0-0.23,0.188-0.418,0.418-0.418h2.075c0.229,0,0.416,0.188,0.416,0.418v1.76"/>
		
			<line clip-path="url(#SVGID_8_)" fill="none" stroke="#000000" stroke-width="0.189" stroke-miterlimit="3.864" x1="78.734" y1="74.981" x2="81.079" y2="74.981"/>
		
			<line clip-path="url(#SVGID_8_)" fill="none" stroke="#000000" stroke-width="0.189" stroke-miterlimit="3.864" x1="86.053" y1="74.997" x2="88.399" y2="74.997"/>
		<path clip-path="url(#SVGID_8_)" fill="none" stroke="#000000" stroke-width="0.189" stroke-miterlimit="3.864" d="M85.709,78.354
			v-1.955c0-0.229,0.188-0.416,0.418-0.416h2.076c0.227,0,0.413,0.188,0.413,0.416v1.955"/>
		<path clip-path="url(#SVGID_8_)" fill="none" stroke="#000000" stroke-width="0.189" stroke-miterlimit="3.864" d="M92.859,78.245
			v-1.848c0-0.23,0.188-0.418,0.42-0.418h2.074c0.228,0,0.416,0.188,0.416,0.418v1.848"/>
		
			<line clip-path="url(#SVGID_8_)" fill="none" stroke="#000000" stroke-width="0.189" stroke-miterlimit="3.864" x1="93.18" y1="74.993" x2="95.526" y2="74.993"/>
		
			<path clip-path="url(#SVGID_8_)" fill="none" stroke="#000000" stroke-width="0.278" stroke-linejoin="round" stroke-miterlimit="3.864" d="
			M79.498,72.78c0.276-0.014,0.727-0.113,1.077-0.238C80.801,72.461,81,72.254,81,72.254l-0.018,2.773c0,0-0.039,0.621,0.373,1.033
			v2.273H78.43v-2.273c0.411-0.412,0.371-1.033,0.371-1.033l0.013-2.148C78.814,72.879,78.938,72.807,79.498,72.78z"/>
		<path clip-path="url(#SVGID_8_)" fill="none" stroke="#000000" stroke-width="0.278" stroke-miterlimit="3.864" d="M80.024,70.956
			c-0.924,0.342-1.207,0.324-1.207,0.324v-2.326c0,0,0.445-0.49,1.021-0.826c0.634-0.371,1.138-0.639,1.138-0.639v2.59
			C80.975,70.079,80.863,70.639,80.024,70.956z"/>
		
			<path clip-path="url(#SVGID_8_)" fill="none" stroke="#000000" stroke-width="0.278" stroke-linejoin="round" stroke-miterlimit="3.864" d="
			M79.941,66.561c0.396-0.223,0.896-0.525,1.022-0.799c0,0,0.019-0.426,0.019-0.891c0-0.359,0.011-0.676,0.142-1.061
			c0.171-0.086,0.261-0.312,0.294-0.57c0.093-0.135,0.209-0.279,0.347-0.439h-3.449c0.084,0.088-0.137,0.186-0.074,0.26
			c0.027,0.367,0.119,0.709,0.387,0.779c0,0.205,0.059,0.361,0.138,0.471c0.026,0.186,0.026,0.371,0.036,0.561
			c0.009,0.156,0.016,2.301,0.016,2.301S79.547,66.784,79.941,66.561z"/>
		
			<path clip-path="url(#SVGID_8_)" fill="none" stroke="#000000" stroke-width="0.278" stroke-linejoin="round" stroke-miterlimit="3.864" d="
			M88.206,65.051c0.021-0.348,0-0.857,0.133-1.24c0.171-0.09,0.256-0.312,0.294-0.572c0.091-0.133,0.205-0.277,0.352-0.439h-3.756
			c0.088,0.09,0.162,0.189,0.225,0.264c0.027,0.363,0.119,0.705,0.385,0.777c0.005,0.205,0.061,0.357,0.144,0.471
			c0.021,0.186,0.019,0.539,0.034,0.725c0,0,0.299,0.094,1.139,0.076C87.995,65.096,88.206,65.051,88.206,65.051z"/>
		
			<path clip-path="url(#SVGID_8_)" fill="none" stroke="#000000" stroke-width="0.278" stroke-linejoin="round" stroke-miterlimit="3.864" d="
			M88.264,66.739l0.016,8.242c0,0-0.038,0.625,0.376,1.035v2.318h-2.929v-2.318c0.411-0.41,0.371-1.035,0.371-1.035l0.016-8.268
			c0,0,0.202,0.037,1.015,0.037c1.039,0,1.138-0.025,1.138-0.025"/>
		
			<path clip-path="url(#SVGID_8_)" fill="none" stroke="#000000" stroke-width="0.278" stroke-linejoin="round" stroke-miterlimit="3.864" d="
			M93.25,65.926c0,0-0.005-0.875-0.016-1.072c-0.025-0.348-0.014-0.676-0.143-1.061c-0.171-0.088-0.26-0.312-0.293-0.572
			c-0.092-0.133-0.212-0.277-0.347-0.438h3.658c-0.084,0.09-0.071,0.186-0.137,0.262c-0.029,0.365-0.118,0.707-0.384,0.779
			c-0.002,0.205-0.06,0.359-0.139,0.471c-0.025,0.184-0.025,0.369-0.037,0.559c-0.008,0.154-0.014,2.322-0.014,2.322
			s-0.19-0.238-0.604-0.375c-0.412-0.137-0.775-0.225-1.189-0.514c-0.187-0.131-0.361-0.449-0.361-0.449"/>
		<path clip-path="url(#SVGID_8_)" fill="none" stroke="#000000" stroke-width="0.278" stroke-miterlimit="3.864" d="M94.376,67.971
			c-0.912-0.381-1.145-0.545-1.145-0.545v2.326c0,0-0.274,0.641,0.669,1.172c0.641,0.359,1.486,0.479,1.486,0.479l0.002-2.43
			C95.389,68.973,95.249,68.334,94.376,67.971z"/>
		<path clip-path="url(#SVGID_8_)" fill="none" stroke="#000000" stroke-width="0.278" stroke-miterlimit="3.864" d="M93.246,72.278
			c-0.005,2.461-0.016,2.75-0.016,2.75s0.041,0.621-0.369,1.033v2.273h2.921v-2.273c-0.415-0.412-0.363-1.033-0.363-1.033
			s-0.015,0.445-0.021-2.018c0,0-0.2,0.008-1.166-0.326C93.347,72.375,93.246,72.278,93.246,72.278z"/>
		
			<path clip-path="url(#SVGID_8_)" fill="none" stroke="#000000" stroke-width="0.189" stroke-linecap="round" stroke-linejoin="round" stroke-miterlimit="3.864" d="
			M78.232,62.807c0,0.484,0.079,1.045,0.497,1.045c0.233,0,0.357-0.027,0.485-0.246 M78.627,63.811c0,1.021,1.226,0.828,1.226,0.291
			 M78.232,62.807c0,0.484,0.079,1.045,0.497,1.045c0.233,0,0.357-0.027,0.485-0.246c0,0,0.221,0.51,0.627,0.51
			c0.405,0,0.623-0.51,0.623-0.51c0.131,0.219,0.25,0.246,0.483,0.246c0.421,0,0.497-0.561,0.497-1.045"/>
		<path clip-path="url(#SVGID_8_)" fill="none" stroke="#000000" stroke-width="0.189" stroke-miterlimit="3.864" d="M78.765,62.79
			c0,0.41,0.036,0.816,0.461,0.816c0.454,0,0.404-0.498,0.404-0.799C79.408,62.807,79.03,62.79,78.765,62.79z"/>
		<path clip-path="url(#SVGID_8_)" fill="none" stroke="#000000" stroke-width="0.189" stroke-miterlimit="3.864" d="M81.056,63.811
			c0,1.021-1.228,0.828-1.228,0.289"/>
		<path clip-path="url(#SVGID_8_)" fill="none" stroke="#000000" stroke-width="0.189" stroke-miterlimit="3.864" d="M80.912,62.79
			c0,0.41-0.029,0.816-0.456,0.816c-0.461,0-0.409-0.498-0.409-0.799C80.271,62.807,80.651,62.79,80.912,62.79z"/>
		
			<path clip-path="url(#SVGID_8_)" fill="none" stroke="#000000" stroke-width="0.189" stroke-linejoin="round" stroke-miterlimit="3.864" d="
			M85.471,62.866c0,0.482,0.078,1.043,0.499,1.043c0.233,0,0.351-0.027,0.479-0.246c0,0,0.226,0.51,0.624,0.51
			c0.407,0,0.634-0.51,0.634-0.51c0.133,0.219,0.247,0.246,0.479,0.246c0.419,0,0.495-0.561,0.495-1.043"/>
		
			<path clip-path="url(#SVGID_8_)" fill="none" stroke="#000000" stroke-width="0.189" stroke-linejoin="round" stroke-miterlimit="3.864" d="
			M85.865,63.87c0,1.02,1.224,0.828,1.224,0.289"/>
		<path clip-path="url(#SVGID_8_)" fill="none" stroke="#000000" stroke-width="0.189" stroke-miterlimit="3.864" d="M86.003,62.848
			c0,0.406,0.029,0.812,0.459,0.812c0.46,0,0.41-0.496,0.41-0.795C86.646,62.866,86.262,62.848,86.003,62.848z"/>
		<path clip-path="url(#SVGID_8_)" fill="none" stroke="#000000" stroke-width="0.189" stroke-miterlimit="3.864" d="M88.293,63.87
			c0,1.02-1.232,0.828-1.232,0.289"/>
		<path clip-path="url(#SVGID_8_)" fill="none" stroke="#000000" stroke-width="0.189" stroke-miterlimit="3.864" d="M88.15,62.848
			c0,0.406-0.027,0.812-0.459,0.812c-0.456,0-0.402-0.496-0.402-0.795C87.506,62.866,87.886,62.848,88.15,62.848z"/>
		
			<path clip-path="url(#SVGID_8_)" fill="none" stroke="#000000" stroke-width="0.189" stroke-linecap="round" stroke-linejoin="round" stroke-miterlimit="3.864" d="
			M94.329,64.09c0,0.535,1.227,0.729,1.227-0.293"/>
		
			<path clip-path="url(#SVGID_8_)" fill="none" stroke="#000000" stroke-width="0.189" stroke-linecap="round" stroke-linejoin="round" stroke-miterlimit="3.864" d="
			M92.736,62.795c0,0.482,0.078,1.045,0.498,1.045c0.234,0,0.354-0.031,0.483-0.248c0,0,0.216,0.51,0.623,0.51
			c0.408,0,0.628-0.51,0.628-0.51c0.127,0.217,0.252,0.248,0.484,0.248c0.418,0,0.497-0.562,0.497-1.045"/>
		<path clip-path="url(#SVGID_8_)" fill="none" stroke="#000000" stroke-width="0.189" stroke-miterlimit="3.864" d="M95.418,62.776
			c0,0.41-0.039,0.816-0.461,0.816c-0.457,0-0.407-0.498-0.407-0.797C94.772,62.795,95.151,62.776,95.418,62.776z"/>
		<path clip-path="url(#SVGID_8_)" fill="none" stroke="#000000" stroke-width="0.189" stroke-miterlimit="3.864" d="M93.128,63.797
			c0,1.021,1.227,0.828,1.227,0.289"/>
		<path clip-path="url(#SVGID_8_)" fill="none" stroke="#000000" stroke-width="0.189" stroke-miterlimit="3.864" d="M93.27,62.776
			c0,0.41,0.03,0.816,0.457,0.816c0.46,0,0.408-0.498,0.408-0.797C93.91,62.795,93.532,62.776,93.27,62.776z"/>
		<path clip-path="url(#SVGID_8_)" fill="none" stroke="#000000" stroke-width="0.278" stroke-miterlimit="3.864" d="M81.54,62.833
			c1.304,2.539,2.012,3.924,5.67,3.924c4.128,0,4.728-2.117,5.492-3.795c-2.272,1.646-3.685,2.143-5.6,2.143
			C85.199,65.104,83.864,64.764,81.54,62.833z"/>
		<path clip-path="url(#SVGID_8_)" fill="none" stroke="#000000" stroke-width="0.278" stroke-miterlimit="3.864" d="M93.22,65.084
			c-0.702,0.805-1.104,1.742,0.041,2.355c0.923,0.498,1.987,0.709,2.105,1.547c0.529-0.529,0.696-1.535-0.384-2.1
			C94.521,66.643,92.776,66.381,93.22,65.084z"/>
		
			<path clip-path="url(#SVGID_8_)" fill="none" stroke="#000000" stroke-width="0.278" stroke-linecap="round" stroke-linejoin="round" stroke-miterlimit="3.864" d="
			M93.201,69.741c-0.53,0.461-0.581,1.254-0.51,1.719c0.071,0.453,1.475,2.352,7.676,1.262c-0.88-0.137-0.912-0.18-1.159-0.424
			c0.462-0.486,0.98-0.559,1.125-1.016c-2.003,0.598-7.75,0.389-7.079-1.555L93.201,69.741z"/>
		
			<path clip-path="url(#SVGID_8_)" fill="none" stroke="#000000" stroke-width="0.278" stroke-linejoin="round" stroke-miterlimit="3.864" d="
			M81.015,64.739c0.314,0.969-0.078,1.443-1.644,2.088c-1.571,0.658-1.047,1.969-0.705,2.385c0.31-0.867,2.153-1.389,2.737-2.145
			C81.93,66.385,81.697,65.292,81.015,64.739z"/>
		
			<path clip-path="url(#SVGID_8_)" fill="none" stroke="#000000" stroke-width="0.278" stroke-linejoin="round" stroke-miterlimit="3.864" d="
			M81.015,69.469c0.549,0.734,0.729,2.604-0.445,3.053c-2.091,0.795-3.23-0.566-6.292,1.822c1.131-2.164,2.902-2.721,3.743-2.895
			C79.012,71.243,81.303,71.061,81.015,69.469z"/>
	</g>
	<g>
		<defs>
			<path id="SVGID_9_" d="M77.513,60.221c-0.115,0-0.207,0.1-0.207,0.211v0.242c0.002,0.217,0.259,0.258,0.259,0.293v0.975
				c0,0.217,0.161,0.393,0.366,0.418v0.037v0.172c0,0.117,0.099,0.207,0.211,0.207h18.082c0.121,0,0.21-0.09,0.21-0.207v-0.172
				c0-0.037,0.008-0.086,0.008-0.086c0.128-0.074,0.192-0.211,0.192-0.369v-0.975c0-0.035,0.032-0.057,0.032-0.057
				c0.107,0,0.196-0.123,0.196-0.236v-0.242c0-0.111-0.092-0.211-0.205-0.211H77.513z"/>
		</defs>
		<clipPath id="SVGID_10_">
			<use xlink:href="#SVGID_9_"  overflow="visible"/>
		</clipPath>
		<g clip-path="url(#SVGID_10_)">
			<defs>
				<rect id="SVGID_11_" x="-240.917" y="-677.562" width="1014.909" height="1313.413"/>
			</defs>
			<clipPath id="SVGID_12_">
				<use xlink:href="#SVGID_11_"  overflow="visible"/>
			</clipPath>
			<path clip-path="url(#SVGID_12_)" fill="none" stroke="#000000" stroke-width="0.189" stroke-miterlimit="3.864" d="M78.14,62.18
				h18.085c0.119,0,0.21,0.096,0.21,0.217v0.174c0,0.115-0.091,0.205-0.21,0.205H78.14c-0.11,0-0.209-0.09-0.209-0.205v-0.174
				C77.931,62.276,78.03,62.18,78.14,62.18z"/>
			<path clip-path="url(#SVGID_12_)" fill="none" stroke="#000000" stroke-width="0.189" stroke-miterlimit="3.864" d="
				M77.463,60.223h19.184c0.12,0,0.21,0.098,0.21,0.211v0.164c0,0.113-0.09,0.207-0.21,0.207H77.463
				c-0.114,0-0.207-0.094-0.207-0.207v-0.164C77.256,60.321,77.349,60.223,77.463,60.223z"/>
		</g>
	</g>
	<g>
		<defs>
			<rect id="SVGID_13_" x="25.359" y="0" width="123.461" height="123.453"/>
		</defs>
		<clipPath id="SVGID_14_">
			<use xlink:href="#SVGID_13_"  overflow="visible"/>
		</clipPath>
		<path clip-path="url(#SVGID_14_)" fill="none" stroke="#000000" stroke-width="0.278" stroke-miterlimit="3.864" d="
			M96.435,62.397v0.174c0,0.113-0.091,0.205-0.211,0.205H78.14c-0.11,0-0.209-0.092-0.209-0.205v-0.174V62.36
			c-0.205-0.025-0.366-0.199-0.366-0.418v-0.971c0-0.039-0.257-0.082-0.259-0.297v-0.24c0-0.115,0.09-0.211,0.207-0.211h19.145
			c0.112,0,0.206,0.096,0.206,0.211v0.24c0,0.113-0.089,0.236-0.198,0.236c0,0-0.031,0.021-0.031,0.061v0.971
			c0,0.156-0.065,0.295-0.193,0.367C96.441,62.309,96.435,62.36,96.435,62.397z"/>
		<path clip-path="url(#SVGID_14_)" fill="none" stroke="#000000" stroke-width="0.278" stroke-miterlimit="3.864" d="
			M81.224,60.139c0-3.25,2.633-5.672,5.878-5.672c3.246,0,5.887,2.422,5.887,5.672c0,0.08,2.559,0.023,2.559,0.023
			c-0.022-4.652-3.801-8.018-8.464-8.018c-4.665,0-8.442,3.365-8.442,8.018L81.224,60.139z"/>
		<path clip-path="url(#SVGID_14_)" d="M120.154,116.352c0.152,0,0.301,0.039,0.446,0.117c0.143,0.076,0.255,0.188,0.337,0.334
			c0.081,0.145,0.121,0.297,0.121,0.455c0,0.156-0.04,0.305-0.118,0.449c-0.081,0.143-0.194,0.256-0.337,0.336
			s-0.295,0.121-0.449,0.121c-0.158,0-0.308-0.041-0.451-0.121c-0.146-0.08-0.255-0.193-0.337-0.336
			c-0.081-0.145-0.12-0.293-0.12-0.449c0-0.158,0.039-0.311,0.12-0.455c0.084-0.146,0.197-0.258,0.342-0.334
			C119.853,116.391,120,116.352,120.154,116.352 M120.154,116.502c-0.129,0-0.253,0.029-0.372,0.098
			c-0.121,0.064-0.214,0.156-0.283,0.277c-0.068,0.119-0.103,0.25-0.103,0.381s0.034,0.256,0.1,0.375
			c0.067,0.119,0.161,0.215,0.281,0.279c0.12,0.066,0.245,0.102,0.377,0.102c0.129,0,0.255-0.035,0.375-0.102
			c0.119-0.064,0.214-0.16,0.282-0.279c0.064-0.119,0.097-0.244,0.097-0.375s-0.032-0.262-0.101-0.381
			c-0.068-0.121-0.162-0.213-0.285-0.277C120.402,116.532,120.279,116.502,120.154,116.502 M119.754,117.758v-0.975h0.335
			c0.116,0,0.198,0.008,0.251,0.027c0.049,0.018,0.09,0.049,0.12,0.094c0.031,0.047,0.047,0.092,0.047,0.143
			c0,0.07-0.025,0.135-0.077,0.188c-0.05,0.053-0.118,0.08-0.202,0.088c0.034,0.014,0.062,0.031,0.084,0.051
			c0.038,0.039,0.088,0.104,0.143,0.195l0.119,0.189h-0.191l-0.087-0.154c-0.067-0.123-0.123-0.193-0.163-0.225
			c-0.028-0.025-0.071-0.035-0.126-0.035h-0.093v0.414H119.754z M119.914,117.209h0.19c0.091,0,0.151-0.014,0.187-0.043
			c0.035-0.025,0.051-0.059,0.051-0.105c0-0.029-0.009-0.053-0.026-0.076c-0.015-0.023-0.037-0.041-0.064-0.051
			c-0.029-0.012-0.081-0.016-0.161-0.016h-0.176V117.209z"/>
	</g>
</g>
</svg>
